<svg xmlns="http://www.w3.org/2000/svg" width="400" height="400"><path fill="#FEFEFE" d="M0 0h400v400H0z"/><path fill="#207DC0" d="m123.313 43.813 2.185-.038c11.284-.03 21.501 4.085 30.115 11.463 1.87 1.87 3.664 3.758 5.387 5.762l2.813-.937L170 58c-.396 9.35-2.576 18.014-5 27-3.638 1.283-6.163.71-9.86-.215l-3.378-.83-3.512-.892-3.559-.881Q140.342 81.102 136 80v-2l7-4c-4.602-5.16-8.421-7.604-15.21-8.355-9.028-.363-15.689.99-22.63 6.93-5.02 5.265-6.808 11.255-7.597 18.362.335 7.331 3.736 14.334 8.769 19.59 6.42 5.669 12.587 6.112 21.047 5.852 8.045-.842 13.044-4.549 19.191-9.516 18.59-14.256 42.45-18.94 65.39-16.43 19.28 2.81 37.17 12.032 51.04 25.567l2.688 2.563L268 121l1.57 1.586c14.734 15.659 22.059 37.53 21.868 58.727l-.021 3.568c-.171 9.303-1.369 17.326-4.417 26.119l-1.027 3.29c-7.838 22.926-24.712 40.069-45.836 51.222-14.312 6.897-27.782 8.645-43.448 8.602h-4.318q-5.832-.001-11.664-.013-6.105-.007-12.212-.008-11.548-.005-23.097-.021-13.154-.016-26.307-.022Q92.046 274.034 65 274v-24l5.176-.018q24.21-.086 48.417-.218 12.444-.07 24.888-.11 10.857-.035 21.712-.103c3.826-.023 7.652-.042 11.479-.049q5.421-.01 10.842-.056c1.933-.013 3.866-.012 5.799-.01 20.257-.213 38.334-5.929 53.3-19.956 13.576-14.108 18.89-30.512 18.74-49.756-.47-18.663-8.378-34.555-21.716-47.435-3.921-3.404-8.022-5.936-12.637-8.289l-2.723-1.402c-14.503-7.038-34.001-8.488-49.492-3.696-18.588 7.326-32.546 18.71-40.722 37.16-6.286 16.873-6.792 31.687-1.157 48.586C138 208 138 208 138 210l11-3a100 100 0 0 1-4.602 11.836l-1.484 3.223-1.539 3.316-1.562 3.387A4515 4515 0 0 1 136 237c-4.493-.565-7.994-1.734-12.055-3.723l-3.36-1.63-3.46-1.71-3.531-1.72A2028 2028 0 0 1 105 224v-2l9-4-.805-2.09-1.07-2.847-1.055-2.778c-3.01-9.237-3.51-18.118-3.507-27.785l-.005-2.156c.018-11.152 1.038-21.012 5.442-31.344l1.445-3.453A150 150 0 0 1 118 138l-2.75-.187c-11.138-1.666-21.098-7.682-28.285-16.235C77.49 108.623 75.52 95.764 77 80c3.235-13.203 12.812-23.715 24-31 7.458-3.935 13.88-5.18 22.313-5.187"/><path fill="#51BAD3" d="m123.313 43.813 2.185-.038c11.284-.03 21.501 4.085 30.115 11.463 1.87 1.87 3.664 3.758 5.387 5.762l2.813-.937L170 58c-.396 9.35-2.576 18.014-5 27-3.638 1.283-6.163.71-9.86-.215l-3.378-.83-3.512-.892-3.559-.881Q140.342 81.102 136 80v-2l7-4c-4.602-5.16-8.421-7.604-15.21-8.355-9.028-.363-15.689.99-22.63 6.93-5.02 5.265-6.808 11.255-7.597 18.362.335 7.331 3.736 14.334 8.769 19.59 6.509 5.747 12.792 5.874 21.18 5.711 2.934-.2 5.631-.566 8.488-1.238-1.738 3.272-3.764 5.91-6.25 8.625-4.236 4.715-7.478 9.965-10.75 15.375-8.855-2.17-16.484-4.687-24-10l-3.187-2.25C81.309 116.48 76.8 104.851 76.625 90.438c-.062-13.73 4.657-23.013 13.75-33.063 10.028-9.073 19.297-13.55 32.938-13.562"/><path fill="#2181BE" d="m167 312 13.938-.312 4.34-.138c7.721-.084 13.6.443 19.722 5.45 4.277 5.111 4.63 9.602 4.383 16.191-.622 4.56-2.375 7.252-5.985 10.051-1.426.98-2.908 1.878-4.398 2.758 1.741 3.875 4.18 7.237 6.625 10.688C210 362.868 210 362.868 210 364c-5.11.643-5.11.643-8 0-2.188-2.146-3.468-4.768-4.937-7.437-3.193-5.206-3.193-5.206-8.217-8.372-5.109-.899-9.56-.487-14.846-.191v16h-7z"/><path fill="#54BCD4" d="M299 239c3.844 1.922 5.793 3.56 8.766 6.57l2.695 2.715 2.789 2.84q1.417 1.433 2.836 2.863 3.464 3.5 6.914 7.012c-1.507 3.55-3.572 5.791-6.316 8.477l-2.565 2.53-2.682 2.618q-2.63 2.579-5.253 5.164l-2.358 2.303c-1.887 1.784-1.887 1.784-2.826 3.908h-2v-11h-55v-2l1.95-.96c8.442-4.36 17.612-9.76 23.802-17.125 2.775-3.232 4.793-5.581 9.04-6.555 3.107-.145 6.105-.062 9.208.14l3.215.11c2.596.093 5.191.236 7.785.39z"/><path fill="#2783C0" d="M330 311h7v53h-7l-1-37-8.437 14.375-2.662 4.533-2.085 3.553-1.096 1.866c-1.935 3.296-1.935 3.296-3.72 6.673-2.237-.097-2.237-.097-5-1a48.5 48.5 0 0 1-4.207-6.441l-.997-1.725c-1.221-2.122-2.413-4.26-3.608-6.397L289 328l-1 36h-7v-52h7l1.582 2.867c4.774 8.595 9.732 17.04 14.962 25.367l1.366 2.196 1.223 1.945C308 346 308 346 308 348h2c.26-.87.52-1.739.79-2.635 1.218-3.387 2.704-6.144 4.581-9.209l1.99-3.277 2.077-3.379a4243 4243 0 0 0 4.058-6.656l1.818-2.963c1.7-2.904 3.215-5.856 4.686-8.881"/><path fill="#2B86C1" d="M257 311h8q.149 7.415.22 14.832.03 2.516.082 5.033c.419 20.7.419 20.7-5.715 27.761-6.368 5.737-13.48 6.06-21.618 5.808-5.498-.601-9.427-2.114-12.969-6.434-5.836-8.204-4.442-18.506-4.25-28.062q.03-2.613.055-5.225c.043-4.238.112-8.475.195-12.713h7l.028 3.194c.04 3.934.106 7.868.18 11.802q.042 2.547.063 5.095c.022 2.45.068 4.9.12 7.35l.003 2.277c.15 5.481 1.51 8.741 4.606 13.282 4.296 3.174 9.911 2.604 15 2 4.126-2.027 6.435-3.693 8-8 .237-2.929.372-5.772.414-8.703l.059-2.539c.06-2.67.106-5.338.152-8.008q.057-2.72.117-5.437.142-6.656.258-13.313"/><path fill="#2582BF" d="m99 315-2 6-1.582-.656C89.256 318.013 83.571 317.197 77 318c-2.549 1.172-4.063 2.063-6 4-.417 3.416-.417 3.416 0 7 3.082 3.09 6.537 3.874 10.688 4.938C97.652 338.31 97.652 338.31 101 344c.74 4.458.522 8.667-1.125 12.875-3.978 4.509-8.329 6.949-14.316 7.363-16.638.448-16.638.448-22.559-4.238-.935-2.887-1.375-4.25 0-7 5.686 1.81 5.686 1.81 7.734 3.055 3.283 1.37 6.226 1.209 9.766 1.195l3.969.016c3.193-.24 4.94-.462 7.531-2.266 1.455-2.91 1.45-4.78 1-8-5.083-4.16-10.443-5.45-16.723-6.979C71.037 338.63 67.9 336.798 64 333c-1.975-3.95-1.43-8.694-1-13 2.118-4.148 5.365-6.369 9.54-8.27 9.222-2.737 17.935-.557 26.46 3.27"/><path fill="#2683C0" d="M151 315c1.353.973 2.693 1.966 4 3-1.37 3.161-1.99 3.993-5 6l-2.312-1.937c-5.74-4.405-12.755-3.63-19.688-3.063-4.939 2.253-7.809 5.715-11 10-1.971 5.913-1.997 12.632.563 18.375 2.844 4.948 7.095 7.844 12.437 9.625 6.574.648 11.647.351 17.344-3.125C149 353 149 353 152 353c1.688 2 1.688 2 3 4-6.005 5.122-10.921 7.539-18.875 7.375l-2.148-.03c-7.82-.233-13.6-2.085-19.368-7.51-6.2-7.071-7.377-14.079-7.023-23.343.863-7.276 4.12-12.026 9.45-16.949 10.082-7.918 22.956-7.605 33.964-1.543"/><path fill="#F8FAFC" d="m174 318 9.063-.25 2.812-.11c5.916-.079 9.276.94 14.125 4.36 2.39 2.91 2.483 6.249 2.379 9.969-.687 3.683-2.684 5.57-5.379 8.031-5.01 2.206-9.52 2.242-14.875 2.125L174 342z"/><path fill="#57BDD5" d="M158 168h4l.734 1.688c1.7 3.87 3.436 7.688 5.391 11.437 1.811 3.551 2.91 7.011 3.875 10.875h-3l-2-6-14 1-2 5h-4c1.87-4.817 3.968-9.528 6.063-14.25l1.103-2.508 1.057-2.383.96-2.172C157 169 157 169 158 168"/><path fill="#5CBFD6" d="M192 167c3 1.5 3 1.5 5 3l-1 3-2.062-1c-3.615-1.23-6.14-1.475-9.938-1-3.692 2.592-4.829 4.041-5.625 8.5.408 3.572.408 3.572 2.5 6.438 4.372 2.885 8.033 2.507 13.125 2.062v-8h3c.613 8.12.613 8.12-1.437 11.063-5.133 1.877-9.855 1.57-14.938-.313-3.313-2.209-5.272-4.117-6.129-8.082-.14-5.94.775-9.064 4.899-13.39 3.647-2.903 8.158-2.797 12.605-2.278"/><path fill="#4FBAD3" d="M235 168h17v2h-14v8h12v3h-12v8h14v3h-17zM214 168h3v21h13v3h-16zM204 168h3v24h-3z"/><path fill="#F4FAFC" d="M159 172h2a875 875 0 0 1 2 4.375l1.125 2.46C165 181 165 181 165 183h-10c.607-4.128 2.038-7.332 4-11"/></svg>