<svg xmlns="http://www.w3.org/2000/svg" xmlns:xlink="http://www.w3.org/1999/xlink" viewBox="0 0 81 81" fill="#fff" fill-rule="evenodd" stroke="#000" stroke-linecap="round" stroke-linejoin="round"><use xlink:href="#A" x=".5" y=".5"/><symbol id="A" overflow="visible"><path d="M57.813 24.406c-.853.832-1.963 1.301-3.157 1.301s-2.325-.469-3.157-1.301l-6.059-6.059v7.125l-2.475-2.453-3.435 3.413 2.56 2.539 3.349-3.328v5.013h18.432V18.347l-6.059 6.059zm0 31.552a4.49 4.49 0 0 1-3.157 1.301c-1.195 0-2.325-.469-3.157-1.301l-6.059-6.059v3.392l-3.349-3.349-2.56 2.56 3.435 3.413 2.475-2.475v8.768h18.432V49.899l-6.059 6.059zm-3.157-31.147c.939 0 1.835-.384 2.517-1.046l6.699-6.698v-.341H45.44v.341l6.699 6.698a3.55 3.55 0 0 0 2.517 1.046zm0 31.552c.939 0 1.835-.363 2.517-1.045l6.699-6.699v-.342H45.44v.342l6.699 6.699c.661.683 1.557 1.045 2.517 1.045zm-16.661-5.44l2.56-2.539-3.456-3.456-2.56 2.539 3.456 3.456zm-.917-16.917l3.456-3.456-2.56-2.56-3.456 3.456 2.56 2.56zm-4.096 11.925l2.539-2.56-3.435-3.456-2.56 2.56 3.456 3.456zm-.896-6.933l3.435-3.456-2.539-2.539-3.456 3.435 2.56 2.56zM1.323 0A1.25 1.25 0 0 0 0 1.323v16c0 .811.533 1.344 1.323 1.344h8c.811 0 1.344-.533 1.344-1.344v-6.656h58.667v6.677c0 .79.533 1.323 1.6 1.323h7.723c.811 0 1.344-.533 1.344-1.323v-16C80 .533 79.467 0 78.677 0H1.323zm13.355 41.259c1.536 0 2.944-.597 4.032-1.664l10.667-10.667v-.576H0v.576l10.667 10.667a5.65 5.65 0 0 0 4.011 1.664zm5.035-.661c-1.344 1.344-3.136 2.091-5.035 2.091s-3.691-.747-5.035-2.091L0 30.955V50.56h29.376V30.955l-9.664 9.643zM78.677 80A1.25 1.25 0 0 0 80 78.677V62.933a1.25 1.25 0 0 0-1.323-1.323h-7.744a1.25 1.25 0 0 0-1.323 1.323v6.4H10.667v-6.656c0-.811-.533-1.344-1.6-1.344H1.323c-.789 0-1.323.533-1.323 1.6v15.744A1.25 1.25 0 0 0 1.323 80h77.355z" fill="#0072c6" stroke="none"/></symbol></svg>