<svg xmlns="http://www.w3.org/2000/svg" width="1024" height="768"><path fill="#FEFEFE" d="M0 0h1024v768H0z"/><path fill="#FEFEFE" d="M317.543 268.16 320 270l3.176 2.371c7.88 6.153 13.852 12.905 18.824 21.629v2l2.887-1.059 3.8-1.378 1.897-.698c15.028-5.429 31.953-4.454 46.416 2.135l3.094 1.398c17.302 8.97 29.048 25.384 34.906 43.602 1.47 4.89 2.028 9.536 2.055 14.633-.341 8.709-.341 8.709 2.468 16.61 2.083 1.456 4.229 2.574 6.477 3.757 10.2 8.508 18.163 20.656 20 34 .303 3.898.405 7.779.438 11.688l.03 2.915c-.178 14.537-6.092 27.673-16.109 38.143C444.51 467.334 438.476 471.88 431 475l-2.352 1.034c-11.762 4.398-24.07 3.519-36.443 3.468q-3.92.005-7.839.016c-6.336.014-12.671.007-19.007-.009a7927 7927 0 0 0-22.173-.01c-13.194.006-26.388-.008-39.582-.032q-19.17-.036-38.338-.021a22574 22574 0 0 1-46.301-.006l-2.22-.002q-7.713-.006-15.426.001-10.395.007-20.79-.027-3.807-.008-7.614 0c-3.475.005-6.949-.007-10.423-.024l-3.015.018c-16.954-.151-31.269-6.8-43.477-18.406-14.077-14.857-18.474-32.16-18.21-52.008.44-14.536 6.723-27.164 16.21-37.992l1.73-2.05c8.825-9.69 22.991-17.387 36.13-18.184 3.391-.014 6.753.054 10.14.234l.727-1.7c5.747-10.384 17.49-17.665 28.523-21.238 6.476-1.545 17.634-3.12 23.75-.062l-.14-1.695c-.764-16.95 7.945-33.335 18.792-45.875 3.807-3.94 7.877-7.273 12.348-10.43l2.293-1.648c20.139-13.291 49.027-13.73 69.25-.192M777.938 166.25c10.63 7.458 19.531 16.486 26.062 27.75 3.741-.646 7.068-1.753 10.625-3.062 16.453-5.118 33.34-2.014 48.436 5.602 16.372 8.836 26.687 23.996 32.939 41.214 1.437 4.857 2.058 9.332 2.012 14.387-.523 9.963-.523 9.963 3.246 18.707 2.83 1.939 5.72 3.534 8.742 5.152 9.237 8.193 15.916 20.61 17.332 32.871 1.118 19.32-1.388 35.194-14.332 50.129l-1.574 1.941c-8.161 9.19-21.058 15.12-33.189 16.336-2.901.106-5.788.123-8.691.104l-3.332.014c-3.655.012-7.31.003-10.966-.007q-3.948.007-7.897.016c-6.39.013-12.781.01-19.172.002q-7.796-.01-15.592-.005l-2.248.002q-2.26 0-4.52.003c-14.11.008-28.219-.002-42.328-.018q-18.13-.018-36.26.003a23459 23459 0 0 1-46.684.01l-2.238-.001q-7.78-.003-15.559.009-9.491.013-18.982-.01-4.836-.013-9.672-.001c-3.505.008-7.01-.002-10.515-.017l-3.043.02c-17.494-.143-32.056-7.253-44.503-19.303C571.26 352.988 567.978 347.3 565 341l-1.484-3.008c-6.186-14.42-5.51-33.233-.516-47.992 3.18-7.88 7.41-14.62 13-21l1.613-1.863c8.944-9.627 20.528-15.513 33.458-17.018 9.308-.865 9.308-.865 16.491-6.369l1.704-2.406c5.583-7.545 16.463-12.906 25.476-14.973 4.227-.481 8.384-.478 12.633-.434l2.52.014q3.053.02 6.105.049l-.073-1.696c-.131-5.408.433-9.93 2.135-15.054l.677-2.077c6.962-20.434 20.386-35.06 39.515-44.611 18.341-8.779 42.33-6.68 59.683 3.688"/><path fill="#565655" d="M317.543 268.16 320 270l3.176 2.371c7.88 6.153 13.852 12.905 18.824 21.629v2l2.887-1.059 3.8-1.378 1.897-.698c15.028-5.429 31.953-4.454 46.416 2.135l3.094 1.398c17.302 8.97 29.048 25.384 34.906 43.602 1.47 4.89 2.028 9.536 2.055 14.633-.341 8.709-.341 8.709 2.468 16.61 2.083 1.456 4.229 2.574 6.477 3.757 10.2 8.508 18.163 20.656 20 34 .303 3.898.405 7.779.438 11.688l.03 2.915c-.178 14.537-6.092 27.673-16.109 38.143C444.51 467.334 438.476 471.88 431 475l-2.352 1.034c-11.762 4.398-24.07 3.519-36.443 3.468q-3.92.005-7.839.016c-6.336.014-12.671.007-19.007-.009a7927 7927 0 0 0-22.173-.01c-13.194.006-26.388-.008-39.582-.032q-19.17-.036-38.338-.021a22574 22574 0 0 1-46.301-.006l-2.22-.002q-7.713-.006-15.426.001-10.395.007-20.79-.027-3.807-.008-7.614 0c-3.475.005-6.949-.007-10.423-.024l-3.015.018c-16.954-.151-31.269-6.8-43.477-18.406-14.077-14.857-18.474-32.16-18.21-52.008.44-14.536 6.723-27.164 16.21-37.992l1.73-2.05c8.825-9.69 22.991-17.387 36.13-18.184 3.391-.014 6.753.054 10.14.234l.727-1.7c5.747-10.384 17.49-17.665 28.523-21.238 6.476-1.545 17.634-3.12 23.75-.062l-.14-1.695c-.764-16.95 7.945-33.335 18.792-45.875 3.807-3.94 7.877-7.273 12.348-10.43l2.293-1.648c20.139-13.291 49.027-13.73 69.25-.192M262 278l-2.598 1.355c-13.971 7.86-23.724 19.793-28.09 35.27-1.886 7.19-2.447 13.85-2.375 21.25l.014 2.664q.02 3.23.049 6.461l-3.41-.691c-14.433-2.769-27.66-4.06-40.664 3.972-5.851 4.012-10.917 9.534-14.004 15.965-3.316 3.026-7.548 2.213-11.86 2.192-13.469.31-23.335 3.92-33.062 13.562-8.729 10.388-12.18 20.296-12.25 33.625l-.062 2.871c-.075 13.565 5.153 24.66 14.261 34.617 9.546 8.782 18.655 11.189 31.214 11.168l3.383.018c3.737.017 7.474.02 11.21.023l8.044.03c7.28.027 14.562.04 21.843.048q6.825.01 13.652.023c12.611.025 25.222.045 37.834.052l2.443.001 2.45.002 4.912.002 2.462.002c13.157.008 26.314.043 39.472.09q20.286.07 40.573.074c7.587.002 15.173.013 22.76.05q9.693.047 19.384.024 4.939-.014 9.878.022c16.143.115 26.772-.14 39.537-10.742 9.12-10.317 13.043-22.725 12.352-36.305-1.075-11.294-6.045-21.051-14.141-29.02-2.318-1.756-4.735-2.925-7.343-4.193-3.05-1.554-5.394-3.1-7.868-5.482-1.07-4.819-.707-9.124-.18-13.996 1.36-15.174-4.399-29.842-13.851-41.512-8.603-9.195-19.884-15.786-32.54-16.77-12.083-.304-21.241 2.308-31.748 7.94C340.887 314.15 339.222 315 336 315l-1.723-3.402C325.79 295.045 317.027 282.88 299 276l-2.723-1.11c-10.837-2.944-24.361-2.149-34.277 3.11M777.938 166.25c10.63 7.458 19.531 16.486 26.062 27.75 3.741-.646 7.068-1.753 10.625-3.062 16.453-5.118 33.34-2.014 48.436 5.602 16.372 8.836 26.687 23.996 32.939 41.214 1.437 4.857 2.058 9.332 2.012 14.387-.523 9.963-.523 9.963 3.246 18.707 2.83 1.939 5.72 3.534 8.742 5.152 9.237 8.193 15.916 20.61 17.332 32.871 1.118 19.32-1.388 35.194-14.332 50.129l-1.574 1.941c-8.161 9.19-21.058 15.12-33.189 16.336-2.901.106-5.788.123-8.691.104l-3.332.014c-3.655.012-7.31.003-10.966-.007q-3.948.007-7.897.016c-6.39.013-12.781.01-19.172.002q-7.796-.01-15.592-.005l-2.248.002q-2.26 0-4.52.003c-14.11.008-28.219-.002-42.328-.018q-18.13-.018-36.26.003a23459 23459 0 0 1-46.684.01l-2.238-.001q-7.78-.003-15.559.009-9.491.013-18.982-.01-4.836-.013-9.672-.001c-3.505.008-7.01-.002-10.515-.017l-3.043.02c-17.494-.143-32.056-7.253-44.503-19.303C571.26 352.988 567.978 347.3 565 341l-1.484-3.008c-6.186-14.42-5.51-33.233-.516-47.992 3.18-7.88 7.41-14.62 13-21l1.613-1.863c8.944-9.627 20.528-15.513 33.458-17.018 9.308-.865 9.308-.865 16.491-6.369l1.704-2.406c5.583-7.545 16.463-12.906 25.476-14.973 4.227-.481 8.384-.478 12.633-.434l2.52.014q3.053.02 6.105.049l-.073-1.696c-.131-5.408.433-9.93 2.135-15.054l.677-2.077c6.962-20.434 20.386-35.06 39.515-44.611 18.341-8.779 42.33-6.68 59.683 3.688m-71.118 21.703c-12.906 13.158-17.052 30.666-17.008 48.547.037 2.502.104 4.999.188 7.5l-3.77-.656c-15.621-2.648-28.46-4.67-42.093 4.918-5.347 4.35-9.623 9.834-13.137 15.738v2l-1.83-.08c-15.779-.593-27.425.132-39.916 10.78-10.87 11.094-14.577 24.106-14.641 39.09.208 13.621 5.914 24.415 15.012 34.397 7.144 6.883 16.296 10.918 26.205 10.953l2.879.017 3.138.004 3.353.015c3.715.016 7.43.024 11.146.033l5.95.022c8.668.033 17.336.054 26.005.073l6.775.015a41614 41614 0 0 0 51.853.086l2.447.003c13.073.017 26.147.058 39.22.11q20.15.076 40.301.087c7.538.005 15.076.02 22.614.06q9.63.052 19.263.036c3.272-.006 6.544 0 9.817.028 15.97.124 26.877.06 39.284-10.854 9.747-10.473 12.68-22.876 12.367-36.715-.51-11.28-5.731-21.271-13.992-28.973-3.163-2.527-6.448-4.477-10.016-6.386l-2.977-1.6L883 276l.08-2.456c.086-3.073.148-6.146.195-9.22.036-1.958.1-3.916.164-5.873.203-15.94-6.41-29.742-17.177-41.35-4.023-3.738-8.46-6.472-13.262-9.101l-2.223-1.32c-9.135-4.608-22.12-4.343-31.867-1.727a83.5 83.5 0 0 0-17.14 8.129C800 214 800 214 797 214l-.775-1.585C787.59 194.93 778.242 180.736 759 174c-20.044-4.578-36.869.234-52.18 13.953"/><path fill="#575756" d="M704 392c2.919-.162 5.829-.28 8.75-.375l2.5-.152c2.378-.058 4.431-.008 6.75.527 3.818 3.985 5.186 8.922 6.688 14.125l.642 2.129c.573 1.91 1.122 3.828 1.67 5.746l.563 1.945c.483 2.271.515 4.29.472 6.61l.018 2.613a177 177 0 0 1-.063 5.39c.066 5.137.066 5.137 2.761 9.326 2.024 1.507 4.092 2.81 6.249 4.116 2.625 2.438 2.625 2.438 5 5l1.39 1.375c11.734 12.35 14.323 27.912 13.989 44.242-.752 15.204-7.797 29.656-19.043 39.899-12.064 9.754-25.197 13.802-40.474 13.745l-3.302.011c-3.633.01-7.267.007-10.901.003l-7.837.015q-9.525.018-19.049.012-7.746-.002-15.492.005l-2.232.001-4.488.004q-21.025.014-42.05.003c-12.805-.006-25.61.006-38.414.025q-19.752.03-39.502.024c-7.385-.002-14.77 0-22.154.014-6.946.014-13.893.01-20.84-.002q-3.816-.004-7.632.009c-3.484.01-6.967.002-10.45-.01l-3.024.022c-16.808-.128-31.51-6.68-43.495-18.397-8.729-9.937-17-23.333-17-37h16l.625 3.813c2.756 12.322 10.502 21.813 20.8 28.68 10.03 5.874 21.41 5.66 32.72 5.63l3.266.003q5.385.001 10.768-.01l7.75.001q11.592-.001 23.186-.024l6.557-.01a38748 38748 0 0 0 50.216-.105l2.366-.006c12.653-.032 25.305-.04 37.958-.037q19.52.003 39.04-.06c7.298-.024 14.596-.037 21.893-.025 6.864.012 13.727-.007 20.59-.047q3.771-.015 7.542.003c15.816.066 26.216-.398 38.723-10.806 9.437-10.653 11.929-22.98 11.383-36.82-.376-5.293-1.715-9.59-4.383-14.18l-1.32-2.352c-3.882-6.341-8.746-11.718-15.492-15.028-3.194-1.609-5.634-3.104-8.188-5.62-1.275-4.624-.865-8.946-.437-13.687.865-12.529-.563-22.174-7.25-32.938l-1.825-2.977L705 394z"/><path fill="#545453" d="m461.563 137.625 2.65-.043c9.353.07 17.494 2.876 25.787 7.043l2.078 1.043c6.187 3.24 11.039 7.349 15.922 12.332l1.95 1.773c4.797 4.434 7.918 9.525 11.05 15.227l2.75-1.312c8.076-3.434 16.483-5.427 25.25-4.688l3.656.281c18.874 1.74 34.452 9.82 46.982 24.035C609.131 205.055 615 219.999 615 235l-16 2-.75-5.812C596.065 217.28 590.214 204.003 579 195c-5.955-4.191-11.977-7.1-19-9l-1.871-.562c-13.39-2.752-24.672 1.574-36.555 7.003-2.634 1.149-4.82 1.935-7.574 2.559l-.943-1.769c-9.26-17.213-17.891-30.68-37.057-37.606-13.44-3.78-26.46-2.7-38.746 3.836-3.5 2.001-6.57 3.846-9.414 6.726C426 168 426 168 424 168c-.26.563-.52 1.127-.79 1.707-1.329 2.518-2.895 4.69-4.585 6.98C408.655 190.94 407.608 207.074 407 224l-2.395-.219A446 446 0 0 0 393 223l-2.334-.144c-10.988-.61-19.254-.296-28.666 6.144l-3.312 2.188c-3.354 3.509-5.761 7.341-8.27 11.484C349 245 349 245 348 246a71 71 0 0 1-4.34.176c-12.667.188-12.667.188-24.543 4.156-4.281 1.35-8.141-.712-12.117-2.332a445 445 0 0 0-5.125-1.687Q299.937 245.66 298 245c7.797-8.427 19.597-13.86 31-15 3.668-.071 7.331-.059 11 0l.766-1.734c5.695-10.454 18.283-17.382 29.171-21.266 6.973-1.813 16.212-2.284 23.063 0l-.176-1.625c-.914-15.884 7.4-32.058 17.613-43.75A276 276 0 0 1 415 157l2.008-2.11c11.959-11.731 28.155-17.06 44.555-17.265"/><path fill="#535353" d="M285.313 345.875 289 346c3 6.625 3 6.625 3 10l9 1 .813-2.25c1.13-2.616 2.396-4.552 4.187-6.75 4.308 1.566 8.062 3.683 12 6l-.437 2.063c-1.745 6.765-1.745 6.765.437 12.937 3.116.586 3.116.586 6.625.688l3.602.199L331 370c2.08 4.674 2.171 7.95 2 13-6.625 3-6.625 3-10 3-.158 5.845-.158 5.845 2.625 10.71 2.134 1.535 2.134 1.535 5.375 3.29-1.319 4.615-3.214 8.099-6 12-3.06-.51-6.095-1.02-9.125-1.687-3.185-.61-3.185-.61-6.875 1.687l1 13c-4.842 1.336-8.934 2.253-14 2l-3-9c-4.549-.494-4.549-.494-9 0-2.24 2.041-3.634 4.31-5 7-4.615-1.319-8.099-3.214-12-6l.438-2.062c1.744-6.766 1.744-6.766-.438-12.938-3.126-.365-3.126-.365-6.625-.187l-3.602.082L254 404c-.51-1.392-1.007-2.79-1.5-4.187l-.844-2.356c-.691-2.59-.77-4.79-.656-7.457l2.117-.629c5.25-1.545 5.25-1.545 8.992-5.195.619-2.123.619-2.123.891-5.176l-1.687-.75c-2.713-1.466-4.949-3.28-7.313-5.25 1.566-4.308 3.683-8.062 6-12l2.063.438c6.765 1.744 6.765 1.744 12.937-.438.586-3.116.586-3.116.688-6.625l.199-3.602L276 348c3.247-1.445 5.755-2.246 9.313-2.125M580.313 414.875 584 415c3 6.625 3 6.625 3 10l9 1 2-4a174 174 0 0 1 4-5c4.11 1.45 7.433 3.511 11 6l-.437 2.063L612 428l-.687 3.563c-.638 3.665-.638 3.665 1.687 7.437h13c2.007 4.934 3 7.555 3 13l-10 3c-.494 4.549-.494 4.549 0 9 2.041 2.24 4.31 3.634 7 5-1.319 4.615-3.214 8.099-6 12-3.06-.51-6.095-1.02-9.125-1.687-3.185-.61-3.185-.61-6.875 1.687l1 13c-4.842 1.336-8.934 2.253-14 2l-4-9c-4.051-.498-4.051-.498-8 0-2.176 2.062-3.6 4.362-5 7-4.615-1.319-8.099-3.214-12-6l.438-2.062c1.744-6.766 1.744-6.766-.438-12.938-3.126-.365-3.126-.365-6.625-.187l-3.602.082L549 473c-1.336-4.842-2.253-8.934-2-14q1.903-.758 3.813-1.5l2.144-.844C555 456 555 456 558 456c.094-5.502.094-5.502-2.848-9.867A79 79 0 0 0 549 442c1.566-4.308 3.683-8.062 6-12l2.063.438c6.765 1.744 6.765 1.744 12.937-.438.586-3.116.586-3.116.688-6.625l.199-3.602L571 417c3.247-1.445 5.755-2.246 9.313-2.125M750 244l4 10c4.048.493 4.048.493 8 0 2.443-2.04 4.228-4.368 6-7 4.234 1.31 8.074 2.944 12 5-.466 2.718-1.012 5.028-2.125 7.563-.977 2.722-.967 3.797.125 6.437 1.863 2.3 1.863 2.3 4.82 2.195l3.305-.07 3.32-.055L792 268c.51 1.392 1.007 2.79 1.5 4.188l.844 2.355C795 277 795 277 795 282l-10 3c-.493 4.048-.493 4.048 0 8 2.04 2.443 4.368 4.228 7 6-1.319 4.615-3.214 8.099-6 12-2.885-.51-5.336-1.137-8.062-2.25-2.875-1.073-2.875-1.073-5.106.316-2.11 1.85-2.11 1.85-2.223 4.852l.141 3.27.11 3.292.14 2.52a647 647 0 0 1-4.75 1.5l-2.672.844C761 326 761 326 757 326a480 480 0 0 1-1.5-3.812l-.844-2.145C754 318 754 318 754 315c-5.502-.094-5.502-.094-9.867 2.848A79 79 0 0 0 740 324c-4.615-1.319-8.099-3.214-12-6l.473-1.793c1.446-5.87 1.445-9.452-.473-15.207l-2 .5c-3.731.622-7.219.564-11 .5-2.286-8.429-2.286-8.429-2-13q1.903-.758 3.813-1.5l2.144-.844C721 286 721 286 724 286c.113-3.166-.048-5.966-1-9-2.386-2.497-5.022-4.27-8-6 1.566-4.308 3.683-8.062 6-12l2.625.938c5.808 2.125 5.808 2.125 11.54.96 2.118-1.814 2.118-1.814 2.226-4.816l-.141-3.27-.11-3.292L737 247a479 479 0 0 1 4.25-1.5l2.39-.844C746 244 746 244 750 244M463.313 224.875 467 225c3 6.5 3 6.5 3 11h9l2-4a174 174 0 0 1 4-5c4.11 1.45 7.433 3.511 11 6l-.437 2.063L495 238l-.75 3.563c-.536 3.332-.536 3.332.848 5.636 1.826 2.08 1.826 2.08 4.82 2.192l3.27-.141 3.292-.11L509 249c1.757 4.504 2.193 8.176 2 13-6.625 3-6.625 3-10 3-.064 4.123-.115 7.673 2.625 10.934 1.738 1.461 3.485 2.808 5.375 4.066-1.319 4.615-3.214 8.099-6 12-2.885-.51-5.336-1.137-8.062-2.25-2.875-1.073-2.875-1.073-5.106.316-2.11 1.85-2.11 1.85-2.223 4.852l.141 3.27.11 3.292.14 2.52c-4.842 1.336-8.934 2.253-14 2l-3-9c-4.549-.494-4.549-.494-9 0-2.24 2.041-3.634 4.31-5 7-4.615-1.319-8.099-3.214-12-6l.438-2.062c1.744-6.766 1.744-6.766-.438-12.938-3.126-.365-3.126-.365-6.625-.187l-3.602.082L432 283c-1.336-4.842-2.253-8.934-2-14q1.903-.758 3.813-1.5l2.144-.844C438 266 438 266 441 266c.094-5.502.094-5.502-2.848-9.867A79 79 0 0 0 432 252c1.566-4.308 3.683-8.062 6-12l2.063.438c6.765 1.744 6.765 1.744 12.937-.438.586-3.116.586-3.116.688-6.625l.199-3.602L454 227c3.247-1.445 5.755-2.246 9.313-2.125"/><path fill="#3598DB" d="M147 601h16c8.657 16.172 16.84 32.573 25 49a47 47 0 0 0 5.344-8.477l1.324-2.659 1.402-2.844 1.46-2.936a5278 5278 0 0 0 4.595-9.271q2.306-4.654 4.616-9.305a2810 2810 0 0 0 2.868-5.789l1.306-2.63 1.15-2.325C213 602 213 602 214 601h15v77h-12l-1-55-5.312 11.125C204.928 646.153 199.006 658.094 193 670h-9a22938 22938 0 0 1-8.862-17.67l-3.015-6.008q-2.17-4.322-4.334-8.646l-1.36-2.706-1.274-2.547-1.117-2.227c-1.113-2.354-2.071-4.779-3.038-7.196l-1 55h-13z"/><path fill="#389ADB" d="M427 623c6.296 3.93 10.33 9.852 12.613 16.89 1.804 9.84.507 18.71-4.898 27.106-4.653 6.026-11.183 9.901-18.715 11.004-10.598.79-19.188-.11-27.812-6.625-5.168-4.777-8.763-12.338-9.497-19.309-.364-9.897 1.517-17.283 7.914-25.004C397.545 616.669 414.04 616.236 427 623"/><path fill="#3799DB" d="M806.965 623.254c5.411 4.198 7.906 9.36 10.035 15.746v15h-43c3.223 7.526 3.223 7.526 9 12 5.189 1.73 11.188 2.066 16.36.105a66 66 0 0 0 3.886-2.23C805 663 805 663 809 663c2.016 1.783 3.373 3.831 5 6-10.001 8.219-17.89 10.233-31 9-7.417-1.741-13.828-5.542-18.281-11.8-4.777-7.967-4.662-17.17-3.719-26.2 2.251-8.599 8.46-14.62 15.902-19.16 9.227-4.194 21.61-2.98 30.063 2.414M546.965 623.254c5.411 4.198 7.906 9.36 10.035 15.746v15h-43c3.223 7.526 3.223 7.526 9 12 5.189 1.73 11.188 2.066 16.36.105a66 66 0 0 0 3.886-2.23C545 663 545 663 549 663c2.016 1.783 3.373 3.831 5 6-10.001 8.219-17.89 10.233-31 9-7.417-1.741-13.828-5.542-18.281-11.8-4.777-7.967-4.662-17.17-3.719-26.2 2.251-8.599 8.46-14.62 15.902-19.16 9.227-4.194 21.61-2.98 30.063 2.414"/><path fill="#545453" d="M546 336c2.472 2.963 3.662 5.54 4.688 9.25.25.892.502 1.784.761 2.703L552 350l-1.871 1.328c-14.073 10.539-21.817 24.184-24.57 41.367-.997 7.063-1.303 14.183-1.559 21.305q-3.22-.216-6.437-.437l-3.899-.266a109 109 0 0 1-8.226-.985c-8.651-1.018-16.572 1.317-24.438 4.688l-2-16c8.203-3.516 13.622-5.306 22.375-5.125l2.52.027c2.035.024 4.07.06 6.105.098l-.07-1.698c-.397-16.827 8.383-33.111 19.77-45.048 5.118-5.015 10.054-9.683 16.3-13.254"/><path fill="#389ADB" d="M869 624c-1.337 3.6-2.995 6.731-5 10l-2.02-.875c-6.69-2.695-12.747-4.176-19.98-3.125l-3 2c-.584 2.457-.584 2.457 0 5 3.986 4.007 9.905 4.986 15.182 6.486 6.216 1.917 11.671 4.736 14.988 10.573 1.755 4.103 1.583 8.75.143 12.941-2.752 5.32-6.609 7.934-12.06 10.082-9.66 2.725-20.426 1.706-29.253-3.082-2.016-1.557-3.39-3.002-5-5l4-8 2.3 1.059 3.013 1.379 2.988 1.37c3.893 1.72 6.904 2.373 11.136 2.442l2.872.078c3.123-.38 4.452-1.151 6.691-3.328.75-2.5.75-2.5 0-5-4.538-3.277-9.792-4.848-15.03-6.662-5.488-1.972-10.41-4.1-13.845-9.025-1.444-4.251-1.843-7.871-1.125-12.313 2.799-5.494 6.355-8.92 12.063-11.25 10.405-2.506 21.553-.746 30.937 4.25M492 624c-1.337 3.6-2.995 6.731-5 10l-2.02-.875c-6.69-2.695-12.747-4.176-19.98-3.125l-3 2c-.584 2.457-.584 2.457 0 5 3.986 4.007 9.905 4.986 15.182 6.486 6.216 1.917 11.671 4.736 14.988 10.573 1.755 4.103 1.583 8.75.142 12.941-2.751 5.32-6.608 7.934-12.058 10.082-9.66 2.725-20.427 1.706-29.254-3.082-2.016-1.557-3.39-3.002-5-5l4-8 2.3 1.059 3.012 1.379 2.989 1.37c3.893 1.72 6.904 2.373 11.137 2.442l2.87.078c3.124-.38 4.453-1.151 6.692-3.328.75-2.5.75-2.5 0-5-4.538-3.277-9.792-4.848-15.03-6.662-5.488-1.972-10.41-4.1-13.845-9.025-1.444-4.251-1.843-7.871-1.125-12.313 2.799-5.494 6.355-8.92 12.063-11.25 10.405-2.506 21.553-.746 30.937 4.25M746 622a70 70 0 0 1 8 6c-4.155 6.825-4.155 6.825-8 8-2.227-.898-2.227-.898-4.625-2.375-5.274-2.847-9.457-3.548-15.375-2.625-5.281 1.794-7.799 4.61-11 9-1.926 5.777-1.902 11.81.688 17.375 2.507 4.402 5.474 7.012 10.312 8.625 8.63.95 14.873-1.248 22-6 1.035.9 2.053 1.82 3.063 2.75l1.722 1.547C754 666 754 666 753.867 668.043c-1.836 4.144-6.098 6.164-10.062 7.941-9.383 3.283-19.21 3.674-28.305-.547-7.51-4.284-11.875-9.416-14.797-17.574-2.348-9.561-1.327-17.764 3.531-26.3 2.513-3.647 5.012-6.22 8.766-8.563l1.953-1.242c9.26-4.973 21.67-4.171 31.047.242M320 622a70 70 0 0 1 8 6c-4.155 6.825-4.155 6.825-8 8-2.227-.898-2.227-.898-4.625-2.375-5.274-2.847-9.457-3.548-15.375-2.625-5.281 1.794-7.799 4.61-11 9-1.926 5.777-1.902 11.81.688 17.375 2.507 4.402 5.474 7.012 10.312 8.625 8.63.95 14.873-1.248 22-6 1.035.9 2.053 1.82 3.063 2.75l1.722 1.547C328 666 328 666 327.867 668.043c-1.836 4.144-6.098 6.164-10.062 7.941-9.383 3.283-19.21 3.674-28.305-.547-7.51-4.284-11.875-9.416-14.797-17.574-2.348-9.561-1.327-17.764 3.531-26.3 2.513-3.647 5.012-6.22 8.766-8.563l1.953-1.242c9.26-4.973 21.67-4.171 31.047.242M607 619h13c4.077 8.62 7.117 17.57 10.25 26.563l1.68 4.79q2.04 5.822 4.07 11.647c1.663-2.495 2.553-4.25 3.512-7.012.28-.801.56-1.602.85-2.427.295-.859.59-1.718.896-2.604l.933-2.678a4189 4189 0 0 0 2.934-8.466l1.996-5.74A8661 8661 0 0 0 652 619h13c-6.656 19.915-14.407 39.43-22 59h-14l-1.266-3.386q-2.378-6.358-4.758-12.715l-2.04-5.451c-3.877-10.374-7.786-20.732-11.85-31.035C607 620.104 607 620.104 607 619"/><path fill="#FAFAFA" d="M299.234 368.668c5.112 2.2 8.138 5.471 10.766 10.332 1.825 5.476 1.801 10.907-.5 16.25-2.538 4.431-5.767 6.901-10.5 8.75-6.374 1.577-11.623 1.645-17.348-1.762-3.926-2.942-6.369-6.533-7.652-11.238-.701-5.536-.242-10.246 2.55-15.137 5.855-7.526 13.64-9.899 22.684-7.195"/><path fill="#FBFBFB" d="M477.285 247.727c5.745 2.641 9.21 6.456 11.715 12.273.985 6.738.024 12.462-4 18-4.191 4.4-8.086 6.154-14.125 6.438-6.218-.05-10.415-2.155-14.875-6.438-3.826-5.031-3.786-10.21-3.55-16.316.83-5.56 3.227-8.291 7.55-11.684l2.313-2c4.925-1.833 9.957-1.868 14.972-.273M594.297 437.719c5.59 2.606 8.317 6.202 11.703 11.281.854 6.144.504 11.88-2.687 17.277-3.034 3.982-6.058 6.188-10.965 7.352-6.037.787-10.115.51-15.348-2.629-5.962-5.167-7.532-9.53-8.086-17.25.16-5.115 2.278-7.979 5.844-11.473 6.001-5.31 11.549-7.058 19.539-4.558"/><path fill="#FBFDFE" d="M414 630c5.846 1.985 8.987 5.642 12.117 10.863 1.978 4.786 1.65 10.549.195 15.457-2.19 4.8-5.018 7.665-9.312 10.68-5.167 1.722-10.106 1.656-15.25-.125-4.893-3.336-7.875-7.3-9.75-12.875-.947-6.667-.413-11.833 3.563-17.344 5.578-6.427 10.28-7.335 18.437-6.656"/><path fill="#FBFBFB" d="M762.313 268.063c4.005 2.887 7.463 6.49 9.687 10.937.723 7.044.438 13.245-4 19-6.632 5.279-12.752 5.787-21 5-5.018-2.42-8.5-6-11-11-1.202-13.234-1.202-13.234 2.063-18.125 6.731-7.407 14.825-8.835 24.25-5.812"/><path fill="#3598DB" d="M570 619h13l1 9 1.574-1.46c6.032-5.464 9.022-7.54 17.426-7.54v12l-4.125.75c-5.873 1.337-9.552 3.301-13.005 8.387-2.141 3.899-2.472 7.594-2.48 11.984-.016.745-.032 1.49-.05 2.257-.048 2.353-.07 4.706-.09 7.06q-.042 2.409-.09 4.818c-.073 3.915-.123 7.829-.16 11.744h-13zM341 619h13l1 9 1.574-1.46c6.032-5.464 9.022-7.54 17.426-7.54v12l-4.125.75c-5.873 1.337-9.552 3.301-13.005 8.387-2.141 3.899-2.472 7.594-2.48 11.984-.016.745-.032 1.49-.05 2.257-.048 2.353-.07 4.706-.09 7.06q-.042 2.409-.09 4.818c-.073 3.915-.123 7.829-.16 11.744h-13z"/><path fill="#5C5C5B" d="M450 341h66l-6 9-2.12 4.514c-1.622 2.59-2.38 3.35-5.36 4.166-3.233.25-6.363.22-9.602.101l-3.543-.034c-3.731-.045-7.458-.145-11.187-.247q-3.797-.06-7.592-.11c-6.2-.088-12.398-.226-18.596-.39z"/><path fill="#3498DB" d="M674 619h13v59h-13zM248 619h13v59h-13z"/><path fill="#FBFCFE" d="M798.25 630.563c4.284 2.377 5.861 4.952 7.75 9.437v5h-33c2.256-9.024 2.256-9.024 5.938-11.937l2.09-1.715c5.284-3.61 11.565-3.26 17.222-.785M538.25 630.563c4.284 2.377 5.861 4.952 7.75 9.437v5h-33c2.256-9.024 2.256-9.024 5.938-11.937l2.09-1.715c5.284-3.61 11.565-3.26 17.222-.785"/><path fill="#3B9BDC" d="M683 595c2.875 1.625 2.875 1.625 5 4 .625 2.938.625 2.938 0 6-2.481 3.357-3.944 4.784-8.062 5.625C677 610 677 610 674.625 607.875c-1.906-3.372-2.274-5.065-1.625-8.875 2.791-4.08 5.177-4.787 10-4M257 595c2.875 1.625 2.875 1.625 5 4 .625 2.938.625 2.938 0 6-2.481 3.357-3.944 4.784-8.062 5.625C251 610 251 610 248.625 607.875c-1.906-3.372-2.274-5.065-1.625-8.875 2.791-4.08 5.177-4.787 10-4"/><path fill="#545454" d="M591 449c2.399 1.572 2.906 2.718 3.813 5.438.213 2.914-.186 4.165-1.813 6.562-3.05 1.525-5.642 1.236-9 1-1.937-1.125-1.937-1.125-3-3-.54-3.63-.464-5.322 1.625-8.375 3.053-2.089 4.745-2.166 8.375-1.625M296 380c1.938 1.063 1.938 1.063 3 3 .365 3.41.614 5.88-1.062 8.938-3.058 1.676-5.529 1.427-8.938 1.062-1.937-1.062-1.937-1.062-3-3-.365-3.41-.614-5.88 1.063-8.937 3.057-1.677 5.528-1.428 8.937-1.063M470.5 258.563c3.5.437 3.5.437 5.438 1.5 1.676 3.057 1.427 5.528 1.062 8.937-1.062 1.938-1.062 1.938-3 3-5.91.633-5.91.633-8.937-1.125-1.574-2.777-1.447-4.737-1.063-7.875 1.633-3.651 2.48-3.935 6.5-4.437M758 279c2.449 3.673 2.315 5.664 2 10-2.851 2.851-5.035 2.863-9 3-2.437-1.562-2.437-1.562-4-4-.45-3.144-.504-5.055 1-7.875 3.378-1.9 6.166-1.49 10-1.125"/></svg>