<svg xmlns="http://www.w3.org/2000/svg" width="460" height="460"><path d="m229.125-.25 2.12-.004c12.22.005 24.123.916 36.202 2.848 2.353.374 4.708.706 7.069 1.027 10.767 1.56 20.823 4.845 31.045 8.509a375 375 0 0 0 6.486 2.237c15.606 5.472 31.949 12.609 44.902 23.012 2.008 1.665 2.008 1.665 4.254 2.902 4.19 2.576 7.988 5.629 11.86 8.657l2.431 1.88 2.354 1.834 2.125 1.656c2.152 1.796 4.141 3.616 6.027 5.692v2l2.063.5c4.288 2.19 7.132 5.62 9.937 9.5v2l1.805.793C410.635 80.748 419.727 97.655 426 108l1.445 2.309A282 282 0 0 1 432 118l1.024 1.771c6.075 10.62 10.437 21.372 14.225 32.991a175 175 0 0 0 2.325 6.453c7.06 18.6 10.463 39.613 10.664 59.5l.03 2.44q.034 3.891.045 7.782l.008 2.69c.012 15.159-1.315 29.49-4.321 44.373a785 785 0 0 0-.793 4.453c-2.086 11.385-5.412 22.062-10.008 32.676-1.094 2.62-2.001 5.237-2.887 7.933-4.528 12.62-11.543 24.463-19.402 35.274-1.893 2.548-1.893 2.548-3.23 4.95-2.571 4.154-5.61 7.93-8.618 11.776l-1.88 2.432-1.834 2.354-1.656 2.125c-1.796 2.152-3.616 4.141-5.692 6.027h-2l-.5 2.063c-2.19 4.288-5.62 7.132-9.5 9.937h-2l-.793 1.805C379.258 410.625 362.357 419.75 352 426l-2.192 1.346c-15.048 9.165-30.705 16.626-47.513 21.925a288 288 0 0 0-6.373 2.124c-12.945 4.29-26.43 5.927-39.922 7.605l-2.508.321c-7.52.867-15.054.92-22.617.929l-2.12.004c-12.22-.005-24.123-.916-36.202-2.848a315 315 0 0 0-7.069-1.027c-10.767-1.56-20.823-4.845-31.045-8.509a375 375 0 0 0-6.486-2.237c-15.606-5.472-31.949-12.609-44.902-23.012-2.008-1.665-2.008-1.665-4.254-2.902-4.19-2.576-7.988-5.629-11.86-8.656l-2.431-1.881-2.354-1.834-2.125-1.656c-2.152-1.796-4.141-3.616-6.027-5.692v-2l-2.062-.5c-4.29-2.19-7.133-5.62-9.938-9.5v-2l-1.805-.793C49.365 379.252 40.273 362.345 34 352l-1.445-2.309A282 282 0 0 1 28 342l-1.024-1.771c-6.075-10.62-10.437-21.372-14.225-32.991a175 175 0 0 0-2.325-6.453c-7.06-18.6-10.463-39.613-10.664-59.5l-.03-2.44q-.035-3.891-.044-7.782l-.01-2.69C-.331 213.214.995 198.883 4 184q.402-2.226.793-4.453c2.086-11.385 5.412-22.062 10.008-32.676 1.094-2.62 2.001-5.237 2.887-7.934 4.528-12.618 11.543-24.462 19.402-35.273 1.893-2.548 1.893-2.548 3.23-4.95 2.571-4.154 5.61-7.93 8.618-11.776l1.88-2.432 1.834-2.354 1.656-2.125C56.104 77.875 57.924 75.886 60 74h2l.5-2.062c2.19-4.29 5.62-7.133 9.5-9.938h2l.793-1.805C80.742 49.375 97.643 40.25 108 34l2.192-1.346c15.048-9.165 30.705-16.626 47.513-21.925a288 288 0 0 0 6.373-2.124C177.023 4.315 190.508 2.678 204 1l2.508-.321c7.52-.867 15.054-.92 22.617-.929"/><path fill="#F1BC00" d="M372 169c8.225 7.385 13.933 15.888 15 27 .16 3.599.187 7.195.203 10.797l.017 3.12q.014 3.257.02 6.515c.01 3.294.041 6.587.072 9.88q.01 3.18.016 6.36l.038 2.943c-.036 10.992-2.653 19.673-9.366 28.385l-1.23 1.762c-4.862 6.416-12.048 10.955-18.77 15.238h-2c.026 6.975 1.034 12.099 4.746 18.027 3.141 2.97 3.141 2.97 12.254 5.973v22c-10.213.557-16.767.569-25-6l-2.14-1.57c-8.306-6.562-14.017-15.996-15.86-26.43q-.044-2.844-.062-5.687c-.235-3.47-.454-4.828-2.938-7.317-2.61-1.778-5.289-3.38-8-4.996-9.797-7.618-17.397-16.527-20-29a103 103 0 0 1-.193-5.113l-.049-3.087c-.044-4.678-.085-9.354-.108-14.032a828 828 0 0 0-.082-7.363c-.405-26.063-.405-26.063 5.432-36.405l1-2h2l.719-1.75c4.265-7.49 13.302-11.876 21.281-14.25 13.966-3.503 31.066-1.177 43 7"/><path fill="#FBFBFB" d="M244.852 162.805 247 164l2.21 1.133C258.3 170.235 265.619 180.23 269 190c.28 2.684.28 2.684.322 5.61l.058 3.34.026 3.585.035 3.726q.028 3.906.04 7.81c.019 3.953.08 7.904.144 11.857q.02 3.803.031 7.607l.075 3.543c-.06 11.325-4.812 21.745-12.731 29.922-2.213 1.653-4.507 2.828-7 4l-1.836 1.02c-11.224 6.115-24.31 8.23-36.762 5.066-8.967-3.251-17.836-7.35-22.402-16.086v-2h-2c-4.96-9.408-7.466-17.288-7.434-27.992l-.015-3.111q-.01-3.24.003-6.48c.008-3.276-.02-6.55-.052-9.827q-.003-3.166.002-6.332l-.034-2.924c.116-11.559 4.446-21.83 12.343-30.272 4.83-4.519 10.15-7.432 16.187-10.062l2.329-1.044c9.671-3.46 25.303-2.418 34.523 1.849"/><path fill="#FAFAFA" d="m93.938 159.563 2.13.007c5.718.15 9.09 1.598 13.932 4.43 3.247-.077 4.84-.908 7.652-2.535 3.866-1.692 7.146-1.91 11.285-1.84l2.053-.035c7.702.044 14.425 3.178 20.01 8.41 7.231 8.865 5.668 20.703 5.559 31.434a3463 3463 0 0 0-.007 6.258 1922 1922 0 0 1-.065 13.059c-.045 5.584-.06 11.168-.064 16.752-.004 4.3-.02 8.598-.039 12.897q-.012 3.09-.02 6.18c-.009 2.87-.031 5.74-.058 8.61 0 .852 0 1.704-.002 2.582-.05 3.914-.085 5.899-2.304 9.228-2.031.372-2.031.372-4.5.363l-2.687-.002-2.813-.048-2.812.01c-6.921-.056-6.921-.056-9.188-2.323a112 112 0 0 1-.303-8.381l-.026-2.627c-.025-2.873-.037-5.747-.05-8.62q-.024-2.986-.051-5.971c-.046-5.246-.08-10.491-.113-15.737q-.078-12.602-.188-25.203-.033-4.414-.055-8.83l-.04-5.38-.008-2.5c.314-3.678.314-3.678-1.166-6.751-3-.167-3-.167-6 0-2.053 2.053-1.154 6.41-1.158 9.236l-.015 2.616q-.016 2.823-.026 5.644-.019 4.462-.053 8.925c-.062 8.461-.116 16.922-.15 25.383-.02 5.169-.056 10.337-.1 15.506q-.021 2.96-.026 5.92c-.005 2.76-.028 5.517-.055 8.275l.009 2.485c-.082 5.561-.082 5.561-1.734 7.718-2.763 2.109-5.863 1.724-9.192 1.667l-2.05.035c-4.95-.03-4.95-.03-7.142-1.701-2.272-2.968-1.747-6.626-1.74-10.22l-.031-2.631c-.03-2.874-.04-5.746-.049-8.62l-.054-5.973c-.048-5.243-.077-10.485-.104-15.728-.03-5.349-.076-10.698-.121-16.047q-.127-15.744-.209-31.49a177 177 0 0 0-7-1c-2.055 2.055-1.165 6.423-1.174 9.252l-.02 2.62q-.021 2.828-.036 5.655-.026 4.469-.065 8.937-.105 12.707-.182 25.415a5189 5189 0 0 1-.12 15.526q-.024 2.965-.037 5.932c-.012 2.76-.036 5.521-.063 8.282l-.002 2.495c-.073 5.658-.073 5.658-2.301 7.886-3.125.446-6.284.324-9.437.313l-2.643.048-2.541.002-2.326.01C69.426 274.895 68.67 274.05 67 272a80 80 0 0 1-.42-8.719l-.026-2.701c-.023-2.955-.024-5.91-.023-8.865l-.023-6.17a2896 2896 0 0 1-.009-12.956c.006-5.516-.025-11.03-.065-16.546-.026-4.253-.029-8.505-.025-12.758a766 766 0 0 0-.03-6.096c-.171-21.986-.171-21.986 7.376-30.069 5.81-5.586 12.22-7.671 20.183-7.558"/><path fill="#020200" d="M349.355 184.957c5.26 2.703 8.952 5.657 11.645 11.043a71 71 0 0 1 .177 4.43l.039 2.783.022 3.017.025 3.103q.02 3.257.032 6.514c.017 3.31.061 6.619.105 9.928q.015 3.165.026 6.33l.053 2.987c-.02 6.196-.863 9.835-4.479 14.908-1.816 1.742-1.816 1.742-3.562 2.875l-1.754 1.18c-4.37 2.453-8.816 2.528-13.684 1.945-5.652-2.027-9.295-5.806-12.084-11.032-1.337-4.333-1.241-8.508-1.252-13.019l-.02-2.948q-.015-3.083-.015-6.165c-.004-3.127-.04-6.254-.078-9.38q-.009-3.004-.012-6.007l-.043-2.81c.041-6.014 1.041-10.633 4.504-15.639 5.848-4.774 13.202-6.95 20.355-4.043"/><path fill="#020202" d="M233.313 184.063c4.005 2.887 7.463 6.49 9.687 10.937.11 1.48.159 2.963.177 4.446l.039 2.793.022 3.027.025 3.11q.02 3.262.032 6.526c.017 3.32.061 6.64.105 9.961q.015 3.17.026 6.34l.053 3.003c-.024 7.49-1.972 11.043-7.042 16.607-3.783 3.395-6.89 3.37-11.812 3.437l-3.398.078c-4.319-.439-6.878-1.83-9.774-5.047l-1.203-1.781-1.234-1.781c-1.817-3.075-2.15-5.7-2.193-9.187l-.039-2.731-.022-2.946-.025-3.038q-.02-3.183-.032-6.367c-.017-3.24-.061-6.478-.105-9.718q-.015-3.094-.026-6.189l-.053-2.927c.022-6.872 1.21-10.324 6.112-15.26 6.494-5.083 12.691-5.856 20.68-3.293"/></svg>