<?xml version="1.0" encoding="UTF-8"?>
<svg xmlns="http://www.w3.org/2000/svg" xmlns:xlink="http://www.w3.org/1999/xlink" width="250px" height="104px" viewBox="0 0 250 104" version="1.1">
<g id="surface1">
<path style=" stroke:none;fill-rule:nonzero;fill:rgb(1.568628%,36.862746%,6.27451%);fill-opacity:1;" d="M 80.492188 9.128906 C 92.007812 17.722656 100.648438 28.953125 102.789062 43.515625 C 104.066406 58.550781 101.410156 73.328125 91.433594 85.175781 C 84.648438 92.667969 77.363281 97.242188 68 101 C 66.960938 101.425781 66.960938 101.425781 65.898438 101.863281 C 53.773438 105.789062 39.332031 103.113281 28.253906 97.644531 C 15.746094 90.542969 7.261719 80.722656 2.71875 66.9375 C -0.832031 52.425781 0.941406 38.246094 8.019531 25.195312 C 15.671875 12.851562 26.726562 4.800781 40.890625 1.394531 C 54.949219 -1.238281 68.460938 1.375 80.492188 9.128906 Z M 80.492188 9.128906 "/>
<path style=" stroke:none;fill-rule:nonzero;fill:rgb(1.176471%,36.470589%,5.882353%);fill-opacity:1;" d="M 80.492188 9.128906 C 92.007812 17.722656 100.648438 28.953125 102.789062 43.515625 C 104.066406 58.550781 101.410156 73.328125 91.433594 85.175781 C 84.648438 92.667969 77.363281 97.242188 68 101 C 66.960938 101.425781 66.960938 101.425781 65.898438 101.863281 C 53.773438 105.789062 39.332031 103.113281 28.253906 97.644531 C 15.746094 90.542969 7.261719 80.722656 2.71875 66.9375 C -0.832031 52.425781 0.941406 38.246094 8.019531 25.195312 C 15.671875 12.851562 26.726562 4.800781 40.890625 1.394531 C 54.949219 -1.238281 68.460938 1.375 80.492188 9.128906 Z M 47 8 C 47 8.660156 47 9.320312 47 10 C 45.742188 10.042969 44.484375 10.082031 43.1875 10.125 C 33.894531 11.175781 25.175781 17.148438 19 24 C 12.636719 32.707031 9.445312 41.480469 9.6875 52.25 C 9.699219 53.070312 9.707031 53.890625 9.71875 54.738281 C 9.546875 66.359375 9.546875 66.359375 13.324219 76.84375 C 15.210938 78.378906 15.210938 78.378906 19 78 C 19.367188 78.882812 19.367188 78.882812 19.742188 79.78125 C 23.925781 87.160156 33.898438 91.917969 41.8125 94.25 C 53.171875 96.75 63.90625 94.425781 74 89 C 77.6875 86.570312 81.046875 83.980469 84.125 80.8125 C 86 79 86 79 89.1875 77.6875 C 90.117188 77.128906 91.042969 76.574219 92 76 C 92.796875 73.210938 92.796875 73.210938 92.855469 71.132812 C 93.023438 68.640625 93.539062 66.316406 94.0625 63.875 C 96.515625 50.332031 95.074219 38.964844 87.664062 27.320312 C 80.6875 17.59375 72.363281 13.046875 60.953125 9.992188 C 58 9 58 9 55.859375 7.382812 C 52.4375 4.839844 50.3125 5.792969 47 8 Z M 47 8 "/>
<path style=" stroke:none;fill-rule:nonzero;fill:rgb(95.294118%,96.862745%,95.686275%);fill-opacity:1;" d="M 56 7 C 56.660156 7.660156 57.320312 8.320312 58 9 C 59.984375 9.609375 61.988281 10.164062 64 10.6875 C 75.390625 14.101562 84.773438 21.34375 90.570312 31.84375 C 95.917969 43.210938 96.128906 54.332031 93.480469 66.5625 C 92.886719 69.21875 92.886719 69.21875 92.875 72.875 C 91.875 76.441406 91.457031 76.675781 88.4375 78.5 C 87.714844 78.890625 86.992188 79.28125 86.246094 79.683594 C 83.855469 81.085938 82.023438 82.675781 80 84.5625 C 76.296875 87.910156 72.570312 90.046875 68 92 C 66.699219 92.585938 66.699219 92.585938 65.375 93.1875 C 54.71875 96.832031 43.742188 95.523438 33.65625 90.933594 C 28.191406 88.097656 23.191406 84.535156 19 80 C 19 79.339844 19 78.679688 19 78 C 17.824219 77.8125 17.824219 77.8125 16.625 77.625 C 14 77 14 77 12 75 C 10.023438 67.597656 9.777344 59.871094 9.6875 52.25 C 9.671875 51.472656 9.652344 50.691406 9.632812 49.890625 C 9.644531 39.304688 13.917969 29.566406 21.039062 21.765625 C 28.71875 14.546875 36.4375 10.511719 47 10 C 47.328125 9.011719 47.660156 8.019531 48 7 C 50.90625 5.546875 52.894531 6.289062 56 7 Z M 24.4375 26.125 C 17.730469 32.996094 14.820312 41.324219 14.8125 50.75 C 14.792969 51.785156 14.792969 51.785156 14.773438 52.84375 C 14.761719 57.589844 15.332031 61.539062 17 66 C 19.460938 67.453125 19.460938 67.453125 22 68 C 22.328125 68.328125 22.660156 68.660156 23 69 C 22.875 70.03125 22.753906 71.0625 22.625 72.125 C 23.085938 76.886719 24.347656 78.238281 27.789062 81.359375 C 37.960938 88.90625 48.6875 90.214844 61 89 C 68.457031 87.183594 76.433594 83.410156 81 77 C 81.507812 74.59375 81.621094 72.382812 81.667969 69.925781 C 81.777344 69.289062 81.886719 68.65625 82 68 C 83.972656 66.949219 85.976562 65.949219 88 65 C 91.644531 55.890625 91.015625 45.585938 87.324219 36.601562 C 81.988281 26.117188 74.023438 19.921875 63.296875 15.566406 C 60.753906 14.941406 59.429688 15.089844 57 16 C 56.671875 16.328125 56.339844 16.660156 56 17 C 52.5625 17.1875 52.5625 17.1875 49 17 C 48.339844 16.339844 47.679688 15.679688 47 15 C 38.382812 15 30.621094 20.445312 24.4375 26.125 Z M 24.4375 26.125 "/>
<path style=" stroke:none;fill-rule:nonzero;fill:rgb(0%,36.078432%,4.313726%);fill-opacity:1;" d="M 158 31 C 164.136719 30.332031 164.136719 30.332031 166.9375 32.5 C 167.289062 32.996094 167.640625 33.488281 168 34 C 169.035156 33.269531 169.035156 33.269531 170.09375 32.523438 C 173.492188 30.742188 175.683594 30.597656 179.5 30.625 C 180.601562 30.617188 181.707031 30.609375 182.84375 30.601562 C 186.460938 31.058594 188.203125 31.65625 191 34 C 195.277344 40.597656 194.40625 48.136719 194.3125 55.75 C 194.316406 57.089844 194.316406 58.429688 194.320312 59.769531 C 194.265625 69.597656 194.265625 69.597656 192 73 C 188.5 73.3125 188.5 73.3125 185 73 C 182.472656 70.472656 182.726562 69.523438 182.65625 66.019531 C 182.625 65.019531 182.597656 64.019531 182.566406 62.992188 C 182.542969 61.941406 182.523438 60.894531 182.5 59.8125 C 182.359375 53.210938 182.199219 47.265625 180 41 C 178.113281 40.84375 178.113281 40.84375 176.1875 40.6875 C 175.480469 40.628906 174.773438 40.570312 174.042969 40.511719 C 171.773438 40.820312 171.773438 40.820312 170.414062 43.164062 C 168.863281 46.277344 168.53125 48.429688 168.339844 51.886719 C 168.234375 53.539062 168.234375 53.539062 168.125 55.226562 C 168.0625 56.371094 168 57.511719 167.9375 58.6875 C 167.808594 60.960938 167.671875 63.238281 167.527344 65.511719 C 167.472656 66.515625 167.417969 67.523438 167.363281 68.558594 C 167 71 167 71 165 73 C 162.0625 73.375 162.0625 73.375 159 73 C 156.316406 70.542969 156.003906 69.035156 155.628906 65.378906 C 155.613281 63.941406 155.617188 62.5 155.636719 61.058594 C 155.636719 60.292969 155.636719 59.53125 155.636719 58.742188 C 155.636719 57.132812 155.648438 55.519531 155.664062 53.910156 C 155.6875 51.441406 155.683594 48.976562 155.679688 46.507812 C 155.683594 44.941406 155.691406 43.375 155.699219 41.808594 C 155.699219 41.070312 155.699219 40.332031 155.695312 39.574219 C 155.75 35.84375 155.878906 34.183594 158 31 Z M 158 31 "/>
<path style=" stroke:none;fill-rule:nonzero;fill:rgb(0%,36.078432%,4.313726%);fill-opacity:1;" d="M 115.5 30.6875 C 117.234375 30.84375 117.234375 30.84375 119 31 C 121.257812 34.386719 121.261719 35.644531 121.308594 39.621094 C 121.347656 41.269531 121.347656 41.269531 121.382812 42.953125 C 121.417969 45.273438 121.449219 47.589844 121.476562 49.90625 C 121.503906 51.007812 121.53125 52.109375 121.558594 53.246094 C 121.570312 54.253906 121.585938 55.261719 121.597656 56.296875 C 122.050781 59.34375 122.964844 60.734375 125 63 C 129.816406 62.796875 129.816406 62.796875 133.703125 60.316406 C 135.3125 57.445312 135.398438 55.492188 135.441406 52.210938 C 135.46875 51.105469 135.496094 50 135.523438 48.859375 C 135.542969 47.132812 135.542969 47.132812 135.5625 45.375 C 135.597656 43.089844 135.640625 40.808594 135.691406 38.523438 C 135.703125 37.511719 135.714844 36.5 135.730469 35.457031 C 136 33 136 33 138 31 C 140.6875 30.730469 143.292969 30.914062 146 31 C 147.628906 34.261719 147.164062 37.855469 147.167969 41.4375 C 147.171875 42.691406 147.171875 42.691406 147.179688 43.96875 C 147.183594 45.738281 147.183594 47.507812 147.183594 49.277344 C 147.1875 51.988281 147.207031 54.703125 147.226562 57.414062 C 147.226562 59.128906 147.230469 60.847656 147.230469 62.5625 C 147.238281 63.378906 147.246094 64.191406 147.253906 65.03125 C 147.230469 70.769531 147.230469 70.769531 145 73 C 142.0625 73.375 142.0625 73.375 139 73 C 137.125 71 137.125 71 136 69 C 135.257812 69.660156 134.515625 70.320312 133.75 71 C 129.085938 74.128906 123.382812 73.804688 118 73 C 113.328125 70.992188 111.910156 68.628906 110 64 C 109.628906 60.503906 109.628906 60.503906 109.636719 56.703125 C 109.636719 56.027344 109.636719 55.351562 109.636719 54.65625 C 109.636719 53.242188 109.648438 51.828125 109.664062 50.414062 C 109.6875 48.242188 109.683594 46.074219 109.679688 43.902344 C 109.730469 31.203125 109.730469 31.203125 115.5 30.6875 Z M 115.5 30.6875 "/>
<path style=" stroke:none;fill-rule:nonzero;fill:rgb(97.254902%,98.039216%,97.254902%);fill-opacity:1;" d="M 39.5 31.0625 C 42.445312 32.167969 43.378906 33.355469 45 36 C 45.761719 35.359375 46.527344 34.722656 47.3125 34.0625 C 51.53125 30.824219 54.78125 30.644531 60 31 C 64.710938 32.753906 67.257812 34.808594 70 39 C 70.5 42.367188 70.5 42.367188 70.496094 46.164062 C 70.496094 46.839844 70.5 47.511719 70.5 48.207031 C 70.5 49.625 70.488281 51.039062 70.464844 52.457031 C 70.4375 54.625 70.445312 56.792969 70.460938 58.960938 C 70.453125 60.339844 70.445312 61.722656 70.433594 63.101562 C 70.425781 64.351562 70.414062 65.605469 70.402344 66.894531 C 70 70 70 70 68.632812 71.9375 C 67 73 67 73 64.4375 72.875 C 62 72 62 72 60 69 C 59.730469 66.320312 59.730469 66.320312 59.691406 63.125 C 59.667969 61.976562 59.640625 60.824219 59.617188 59.640625 C 59.582031 57.214844 59.550781 54.785156 59.523438 52.359375 C 59.496094 51.210938 59.46875 50.058594 59.441406 48.875 C 59.429688 47.820312 59.414062 46.765625 59.402344 45.679688 C 59.210938 42.988281 59.210938 42.988281 57.65625 41.160156 C 55.027344 39.316406 53.113281 39.554688 50 40 C 47.695312 41.867188 46.320312 43.355469 45 46 C 44.882812 47.777344 44.820312 49.558594 44.789062 51.339844 C 44.761719 52.402344 44.730469 53.464844 44.703125 54.5625 C 44.652344 56.808594 44.605469 59.054688 44.570312 61.304688 C 44.523438 62.898438 44.523438 62.898438 44.476562 64.527344 C 44.457031 65.503906 44.4375 66.480469 44.417969 67.488281 C 44 70 44 70 42.628906 71.851562 C 41 73 41 73 38.4375 72.875 C 36 72 36 72 34 69 C 33.792969 66.351562 33.695312 63.808594 33.699219 61.15625 C 33.695312 60.390625 33.691406 59.625 33.6875 58.835938 C 33.679688 57.21875 33.679688 55.601562 33.683594 53.984375 C 33.6875 51.507812 33.664062 49.035156 33.640625 46.558594 C 33.636719 44.988281 33.636719 43.414062 33.636719 41.84375 C 33.628906 41.101562 33.617188 40.363281 33.609375 39.597656 C 33.65625 34.503906 33.65625 34.503906 35.367188 32.007812 C 37 31 37 31 39.5 31.0625 Z M 39.5 31.0625 "/>
<path style=" stroke:none;fill-rule:nonzero;fill:rgb(0%,35.686275%,4.313726%);fill-opacity:1;" d="M 232.5625 15.875 C 235 17 235 17 236.75 20.1875 C 237.925781 23.40625 238.585938 26.59375 239 30 C 240.980469 30.660156 242.960938 31.320312 245 32 C 245.125 34.875 245.125 34.875 245 38 C 243 40 243 40 240.375 40.125 C 239.589844 40.082031 238.808594 40.042969 238 40 C 237.972656 42.894531 237.953125 45.792969 237.9375 48.6875 C 237.929688 49.503906 237.921875 50.320312 237.914062 51.164062 C 237.894531 55.246094 237.96875 59.015625 239 63 C 241.96875 63.328125 244.941406 63.660156 248 64 C 248.1875 67.375 248.1875 67.375 248 71 C 244.441406 73.375 242.78125 73.269531 238.5625 73.25 C 237.429688 73.253906 236.296875 73.261719 235.128906 73.265625 C 232.097656 73.007812 230.449219 72.761719 228 71 C 225.777344 67.582031 225.765625 64.722656 225.804688 60.703125 C 225.8125 58.894531 225.8125 58.894531 225.824219 57.050781 C 225.839844 55.796875 225.859375 54.542969 225.875 53.25 C 225.882812 51.980469 225.894531 50.710938 225.902344 49.402344 C 225.925781 46.269531 225.957031 43.132812 226 40 C 225.195312 39.855469 224.390625 39.710938 223.5625 39.5625 C 221 39 221 39 220 38 C 219.75 35.5625 219.75 35.5625 220 33 C 223 31 223 31 226 31 C 225.953125 30.167969 225.90625 29.335938 225.859375 28.480469 C 225.824219 27.394531 225.789062 26.308594 225.75 25.1875 C 225.703125 24.109375 225.65625 23.03125 225.609375 21.917969 C 226 19 226 19 227.855469 17.121094 C 230 16 230 16 232.5625 15.875 Z M 232.5625 15.875 "/>
<path style=" stroke:none;fill-rule:nonzero;fill:rgb(0%,36.078432%,4.313726%);fill-opacity:1;" d="M 205 31 C 207.742188 30.527344 210.195312 30.820312 213 31 C 215.09375 33.09375 214.164062 37.667969 214.167969 40.558594 C 214.171875 41.417969 214.175781 42.277344 214.179688 43.164062 C 214.183594 44.984375 214.183594 46.804688 214.183594 48.628906 C 214.1875 51.421875 214.207031 54.214844 214.226562 57.007812 C 214.226562 58.777344 214.230469 60.542969 214.230469 62.308594 C 214.238281 63.148438 214.246094 63.988281 214.253906 64.851562 C 214.230469 70.769531 214.230469 70.769531 212 73 C 206.894531 73.542969 206.894531 73.542969 204.332031 71.984375 C 202.238281 68.863281 202.59375 65.566406 202.636719 61.9375 C 202.636719 61.148438 202.636719 60.363281 202.636719 59.550781 C 202.636719 57.886719 202.648438 56.222656 202.664062 54.558594 C 202.6875 52.007812 202.683594 49.460938 202.679688 46.914062 C 202.683594 45.296875 202.691406 43.679688 202.699219 42.0625 C 202.699219 41.300781 202.699219 40.539062 202.695312 39.75 C 202.746094 35.972656 202.851562 34.222656 205 31 Z M 205 31 "/>
<path style=" stroke:none;fill-rule:nonzero;fill:rgb(0%,37.254903%,4.313726%);fill-opacity:1;" d="M 214 17 C 214.363281 23.40625 214.363281 23.40625 212.8125 25.9375 C 210.339844 27.386719 208.820312 27.421875 206 27 C 204.125 25.9375 204.125 25.9375 203 24 C 203.3125 20.3125 203.3125 20.3125 204 17 C 208.082031 14.902344 209.917969 14.902344 214 17 Z M 214 17 "/>
</g>
</svg>
