<?xml version="1.0" standalone="no"?>
<!DOCTYPE svg PUBLIC "-//W3C//DTD SVG 20010904//EN"
 "http://www.w3.org/TR/2001/REC-SVG-20010904/DTD/svg10.dtd">
<svg version="1.0" xmlns="http://www.w3.org/2000/svg"
 width="261.000000pt" height="193.000000pt" viewBox="0 0 261.000000 193.000000"
 preserveAspectRatio="xMidYMid meet">

<g transform="translate(0.000000,193.000000) scale(0.100000,-0.100000)"
fill="#000000" stroke="none">
<path d="M1401 1713 c-20 -83 -20 -83 0 -83 12 0 19 7 19 19 0 11 5 23 10 26
6 4 10 -5 10 -19 0 -34 15 -33 35 2 l16 27 -4 -27 c-3 -19 0 -28 10 -28 15 0
27 26 37 83 6 34 5 37 -17 37 -16 0 -28 -10 -40 -32 l-16 -33 0 33 c-1 27 -5
32 -26 32 -20 0 -26 -7 -34 -37z"/>
<path d="M1558 1743 c7 -3 16 -2 19 1 4 3 -2 6 -13 5 -11 0 -14 -3 -6 -6z"/>
<path d="M2059 1734 c-17 -21 -21 -104 -4 -104 7 0 16 16 19 35 9 44 28 46 24
3 -2 -23 1 -33 13 -36 12 -2 16 5 16 28 0 18 5 35 12 39 8 5 9 15 3 30 -8 21
-10 22 -24 7 -21 -20 -32 -21 -24 -1 7 20 -18 19 -35 -1z"/>
<path d="M1870 1720 c-23 -5 -26 -12 -21 -39 0 -5 10 -11 22 -14 13 -3 18 -10
14 -17 -5 -9 -10 -9 -18 -1 -6 6 -22 11 -36 11 -18 0 -22 3 -13 9 8 5 12 17
10 27 -3 16 -13 19 -70 21 l-67 2 -11 -37 c-13 -48 -13 -52 4 -52 7 0 16 14
20 30 3 17 10 30 15 30 4 0 11 -13 15 -30 4 -25 10 -30 33 -30 16 0 35 4 43
10 9 5 19 5 27 -1 6 -6 27 -9 45 -7 26 2 34 8 36 26 3 17 -2 25 -17 29 -12 3
-21 9 -21 14 0 5 11 7 25 3 29 -7 33 1 8 14 -10 5 -29 6 -43 2z m-70 -41 c0
-20 -25 -37 -37 -25 -3 3 -1 17 5 32 13 28 32 24 32 -7z"/>
<path d="M1547 1713 c-2 -5 -7 -25 -11 -45 -8 -46 14 -53 31 -10 10 25 11 25
12 4 1 -12 8 -25 16 -28 21 -8 65 4 65 17 0 7 -10 9 -26 5 -22 -6 -25 -4 -22
16 2 19 8 22 32 20 19 -2 27 1 24 10 -7 21 -57 22 -81 1 -19 -17 -20 -17 -14
0 6 17 -17 26 -26 10z"/>
<path d="M1946 1701 c-33 -37 -3 -80 47 -67 28 7 44 42 33 71 -8 21 -60 19
-80 -4z m54 -21 c0 -11 -7 -23 -15 -27 -21 -8 -28 1 -20 26 8 27 35 27 35 1z"/>
<path d="M1790 1544 c-30 -8 -64 -24 -75 -36 -18 -18 -18 -20 -2 -15 28 10 31
-17 7 -70 -12 -26 -37 -102 -56 -168 -19 -66 -45 -136 -58 -155 -36 -55 -117
-141 -129 -137 -10 3 -43 102 -54 160 -4 18 -11 27 -24 27 -11 0 -19 -5 -19
-11 0 -5 -4 -8 -8 -5 -5 3 -7 -7 -4 -22 3 -23 0 -28 -17 -28 -16 0 -21 7 -22
26 0 14 -3 19 -6 13 -2 -7 -9 -13 -15 -13 -6 0 -8 7 -4 15 3 8 -1 18 -7 22
-13 8 -57 146 -57 177 0 9 5 16 10 16 6 0 10 -4 10 -10 0 -5 5 -10 10 -10 17
0 11 59 -10 99 -27 53 -67 99 -103 118 -46 23 -141 13 -206 -22 -47 -26 -52
-27 -69 -12 -51 47 -136 56 -203 21 -32 -16 -89 -66 -89 -77 0 -5 -13 -28 -30
-52 -16 -24 -30 -47 -30 -50 0 -11 -34 -51 -45 -54 -5 -1 -12 -5 -15 -8 -3 -4
1 -3 9 2 10 6 12 2 6 -16 -4 -13 -12 -28 -17 -34 -6 -6 -7 -3 -3 10 4 11 -2 6
-13 -11 -11 -17 -23 -45 -27 -62 -3 -18 -11 -32 -16 -32 -5 0 -9 -6 -9 -13 0
-21 -75 -207 -105 -260 -15 -26 -25 -51 -21 -54 3 -3 49 -5 101 -4 136 2 205
32 260 110 26 39 70 169 60 179 -2 3 -7 -1 -9 -9 -2 -8 -7 -21 -9 -29 -3 -8
-6 -1 -6 15 0 17 6 41 14 55 20 34 18 47 -5 53 -11 3 -20 12 -20 20 0 36 142
211 204 252 23 15 24 15 37 -17 34 -87 37 -94 39 -73 l1 20 15 -20 c9 -11 25
-39 36 -63 14 -29 25 -41 35 -38 9 4 19 -7 29 -32 8 -20 18 -44 23 -52 5 -9
12 -30 15 -48 4 -17 12 -34 17 -37 5 -4 9 -14 9 -23 0 -9 6 -28 13 -42 25 -47
27 -59 11 -53 -8 3 -14 2 -12 -3 1 -5 -2 -20 -6 -33 -6 -16 -11 -20 -16 -12
-9 16 -62 23 -53 7 3 -6 17 -26 30 -44 44 -59 58 -62 316 -62 l234 0 39 26
c51 33 125 115 119 131 -2 7 0 12 6 10 6 -1 18 9 27 23 16 24 16 25 -3 10 -17
-12 -16 -10 2 11 21 23 21 26 7 41 -23 23 -11 66 21 74 24 6 25 10 25 75 0 54
4 72 19 86 10 10 44 69 75 131 l56 112 -92 -1 c-51 0 -118 -7 -148 -15z m-73
-196 c-3 -8 -6 -5 -6 6 -1 11 2 17 5 13 3 -3 4 -12 1 -19z m-1257 -138 c0 -5
-5 -10 -11 -10 -5 0 -7 5 -4 10 3 6 8 10 11 10 2 0 4 -4 4 -10z m200 -170 c6
-11 8 -20 6 -20 -3 0 -10 9 -16 20 -6 11 -8 20 -6 20 3 0 10 -9 16 -20z m509
-116 c-17 -21 -31 -17 -17 5 7 11 16 17 20 14 5 -2 4 -11 -3 -19z m37 -71 c-7
-7 -26 7 -26 19 0 6 6 6 15 -2 9 -7 13 -15 11 -17z m35 10 c13 -15 12 -15 -8
-4 -24 12 -29 21 -14 21 5 0 15 -7 22 -17z"/>
<path d="M1676 1472 c-2 -4 4 -9 15 -9 11 -1 17 2 14 8 -7 11 -22 12 -29 1z"/>
<path d="M1920 1200 c0 -105 18 -123 22 -23 l3 67 44 -67 c60 -93 71 -89 71
23 0 53 -4 90 -10 90 -6 0 -10 -28 -10 -65 0 -36 -3 -65 -7 -65 -5 0 -27 30
-51 65 -23 36 -47 65 -52 65 -6 0 -10 -37 -10 -90z"/>
<path d="M2100 1200 l0 -90 70 0 c40 0 70 4 70 10 0 6 -24 10 -53 10 -62 0
-66 2 -59 35 4 23 9 25 54 25 35 0 48 4 45 13 -4 12 -13 14 -74 16 -28 1 -32
4 -29 24 3 19 10 22 60 25 77 4 61 22 -20 22 l-64 0 0 -90z"/>
<path d="M2260 1280 c0 -5 14 -10 30 -10 l30 0 0 -80 c0 -47 4 -80 10 -80 6 0
10 33 10 80 l0 80 30 0 c17 0 30 5 30 10 0 6 -30 10 -70 10 -40 0 -70 -4 -70
-10z"/>
<path d="M700 1200 c0 -5 5 -10 10 -10 6 0 10 5 10 10 0 6 -4 10 -10 10 -5 0
-10 -4 -10 -10z"/>
<path d="M1860 1115 c0 -8 5 -15 10 -15 6 0 10 7 10 15 0 8 -4 15 -10 15 -5 0
-10 -7 -10 -15z"/>
<path d="M1110 990 c0 -11 2 -20 4 -20 2 0 6 9 9 20 3 11 1 20 -4 20 -5 0 -9
-9 -9 -20z"/>
<path d="M1390 728 c-79 -22 -157 -108 -186 -203 -7 -27 -14 -81 -14 -120 0
-81 20 -122 77 -161 62 -41 171 -38 249 9 30 17 81 79 94 112 14 37 2 45 -72
45 -46 0 -58 -3 -58 -15 0 -27 -47 -65 -79 -65 -61 0 -76 79 -39 203 14 48 59
97 87 97 30 0 61 -35 61 -70 0 -27 3 -30 33 -30 17 0 49 3 71 7 l38 6 -6 50
c-13 115 -124 173 -256 135z"/>
<path d="M514 638 c4 -51 11 -136 16 -188 5 -52 12 -125 15 -162 l7 -68 66 0
67 0 32 78 c18 42 42 103 55 134 13 32 26 58 29 58 3 0 9 -35 13 -77 3 -43 9
-104 13 -135 l6 -58 62 0 63 0 107 243 c59 133 110 248 112 255 4 9 -11 12
-56 12 -37 0 -61 -4 -61 -11 0 -6 -13 -41 -29 -77 -15 -37 -41 -98 -57 -136
-28 -68 -29 -69 -35 -37 -4 17 -10 83 -14 146 l-7 115 -62 0 -62 0 -60 -147
c-58 -145 -59 -146 -66 -107 -4 21 -10 87 -13 147 l-7 107 -70 0 -71 0 7 -92z"/>
<path d="M1767 713 c-3 -10 -15 -74 -27 -143 -12 -69 -30 -173 -41 -231 -10
-58 -19 -109 -19 -112 0 -4 33 -7 74 -7 l74 0 7 48 c4 26 11 68 17 95 l10 47
83 0 83 0 9 53 c5 28 8 56 5 60 -2 5 -36 7 -75 6 -40 -1 -73 1 -74 5 -2 3 -3
22 -3 41 l0 34 112 3 111 3 12 58 11 57 -182 0 c-165 0 -183 -2 -187 -17z"/>
</g>
</svg>
