<svg xmlns="http://www.w3.org/2000/svg" width="225" height="225"><path fill="#0B72B6" d="M0 0h225v225H0z"/><path fill="#EBF4F7" d="M110 34v2l2.297.766c7.118 3.25 11.267 12.521 15.346 18.982 2.89 4.573 5.952 8.992 9.142 13.361C138 71 138 71 138 73h2l.368-1.754c3.942-14.003 16.644-28.201 28.878-35.441 7.395-3.393 18.324-2.992 26.094-.91 2.298.932 4.489 1.91 6.66 3.105-1.289 4.402-2.965 7.777-5.57 11.543l-2.165 3.165L192 56q-2.19 3.272-4.367 6.55l-2.23 3.345-1.129 1.694-3.539 5.303c-3.31 4.96-6.621 9.919-9.88 14.913C157.831 107.754 157.831 107.754 145 112c-8.813 1.46-16.545-.046-24-5-2.661-2.451-4.815-5.125-7-8a453 453 0 0 0-2.875-3.187c-4.047-4.737-7.476-9.935-10.96-15.09a1010 1010 0 0 0-3.52-5.16l-2.207-3.25-2.004-2.95C91 67 91 67 91 65h-2l-.781 2.16c-2.044 4.763-5.092 8.858-8.028 13.11a503 503 0 0 0-2.414 3.538C69.612 95.87 62.613 104.082 48 108c-8.871 1.399-18.029-1.014-26-5 1.546-4.476 3.97-8.184 6.625-12.062l2.727-4.036 1.364-2.008c1.777-2.62 3.53-5.257 5.284-7.894l1.95-2.922a3676 3676 0 0 0 4.382-6.594c2.1-3.165 4.214-6.32 6.33-9.474A717 717 0 0 0 54.8 51.7C63.857 37.937 63.857 37.937 71 34l2.813-1.75C86.646 27.217 97.44 29.36 110 34"/><path fill="#0A77BB" d="M88.715 34.813c7.05-.285 12.259.446 18.285 4.187l1.945 1.191c7.304 5.426 11.355 14.074 15.86 21.777 7.318 12.439 16.59 26.729 31.007 31.22L159 94c-1.466 3.59-3.368 5.364-6.437 7.688l-2.372 1.824C144.8 107.174 138.26 106.545 132 106c-2.943-.962-4.452-2.076-7-4l-2.875-2c-8.118-7.114-13.761-17.399-19.669-26.335C92.661 57.28 92.661 57.28 77 48c-3.995-.44-7.989-.753-12-1 4.517-6.475 10.309-9.674 17.875-11.812q2.92-.175 5.84-.376"/><path fill="#0A7DC0" d="M71.938 51.563C76.844 51.689 81.26 53.89 85 57c.72 1.88.72 1.88 1 4a75 75 0 0 1-4.312 7.375l-1.37 2.124a462 462 0 0 1-9.63 14.189l-1.199 1.706C63.917 94.132 57.486 99.852 48 102c-6.112.4-11.356.61-17-2 3.37-9.255 9.59-17.56 15.277-25.527 1.863-2.674 3.611-5.403 5.348-8.16l1.762-2.758a155 155 0 0 0 2.883-4.735c2.075-3.346 3.792-5.192 7.542-6.257 2.7-.445 5.405-.698 8.126-1"/><path fill="#0D73B7" d="m184 38.875 2.195-.012c3.198.006 5.75.119 8.805 1.137-1.286 3.523-2.792 6.35-5 9.375-3.02 4.22-5.943 8.49-8.812 12.813l-1.268 1.906L176 70q-2.717 4.096-5.437 8.188l-1.252 1.889c-2.022 3.042-4.08 6.03-6.311 8.923-7.197-.6-12.41-2.94-18.062-7.437C143 79 143 79 143.224 76.613c.792-2.666 1.774-4.629 3.253-6.976l1.535-2.44 1.613-2.51 1.543-2.474c4.692-7.379 9.733-14.24 17.082-19.15l2.516-1.715c4.334-2.615 8.33-2.5 13.234-2.473"/><path fill="#E8F2F7" d="M40 138h7q1.443 5.686 2.875 11.375l.816 3.215c1.443 5.736 2.78 11.465 3.884 17.276A111 111 0 0 0 56 176c5.238-17.322 5.238-17.322 9.492-34.902C66 139 66 139 67 138c2-.04 4-.043 6 0 2.473 7.207 4.627 14.477 6.688 21.813l.97 3.388.916 3.256.831 2.937C83 172 83 172 83 176h2l.277-3.031c.866-6.926 2.667-13.689 4.285-20.469l.999-4.227Q91.774 143.135 93 138h7c-.467 6.651-1.901 12.7-3.68 19.117-1.806 6.577-3.424 13.202-5.07 19.82l-.963 3.867Q89.14 185.401 88 190h-7l-.687-2.535q-1.279-4.71-2.566-9.416a2065 2065 0 0 1-1.103-4.055C74.716 166.876 72.768 159.844 70 153l-.883 3.016A4995 4995 0 0 1 59 190h-7q-2.573-10.142-5.127-20.288a4810 4810 0 0 0-1.746-6.902q-1.255-4.959-2.502-9.92l-.795-3.118-.728-2.912-.646-2.557C40 142 40 142 40 138"/><path fill="#EDF4F6" d="M108 139c25 0 25 0 32 3 4.644 5.01 5.486 8.454 5.398 15.168-.539 3.83-1.768 5.804-4.527 8.46-7.965 5.837-17.48 4.609-26.871 4.372v19h-6z"/><path fill="#DEEAF2" d="M153 138h33v6c-2.557 1.279-4.367 1.113-7.227 1.098l-3.125-.01-3.273-.025-3.297-.014q-4.039-.02-8.078-.049v16h21v6h-22v23h-7z"/><path fill="#0D6DAF" d="m115 144 8.188-.25 2.551-.11c3.937-.058 5.83.087 9.25 2.25 2.615 2.744 2.972 3.59 3.261 7.423-.268 3.945-.747 5.666-3.25 8.687-4.2 2.231-8.174 2.24-12.812 2.125L115 164z"/><path fill="#FBFCFC" d="M108 144h1l1 24 1-23 3-1v20h16l-2 1 1 4-14 1-1 19h-6z"/><path fill="#0C68AB" d="M161 145h23v5l-17 2-1 8h10v1h-15z"/><path fill="#0989CA" d="M0 0h16v8L9 9l-1 7H0z"/><path fill="#067FC2" d="m72 24 3.813.563c5.483.628 10.728.1 16.187-.563v2l4 1v-2h8v5c-3.76.89-6.792.947-10.562.375C85.01 29.368 76.893 32.295 69 35v-3l3-2c.25-3.084.25-3.084 0-6"/><path fill="#F6F9F9" d="m65 40 3 1c-.875 3.875-.875 3.875-2 5l11 1v4l-2.703.367-3.547.508-3.516.492C61.56 53.477 58.961 55.82 55 60l-1-5 3-1-.312-2.625C57.103 46.884 58.896 45.176 62 42z"/><path fill="#0E66A8" d="M161 168h8c-.964 16.893-.964 16.893-2 24l-6-1z"/><path fill="#1281C2" d="M98 35c2 2 2 2 2 4l-12-1v2l-7 1-1 3h-9v2h5v1H65c4.517-6.475 10.309-9.674 17.875-11.812C93.145 34.57 93.145 34.57 98 35"/><path fill="#EAF3F7" d="M76 48c6.4 0 9.415 2.588 14.082 6.797C92 57 92 57 94 62l-10 4c0-3.112.456-5.942 1-9l-2.25-.875C80 55 80 55 78.219 53.938c-2.923-1.235-5.31-1.132-8.469-1.063l-3.266.055L64 53c2.944-1.963 3.802-2.255 7.125-2.5L75 50z"/><path fill="#F4F9F9" d="m48 164 1 4h4c1.784 3.062 2.229 5.22 2.125 8.75l-.055 2.422L55 181l4-1c.089 3.199-.09 5.927-1 9h-6c-2.511-8.408-4.752-16.12-4-25"/><path fill="#0D6AAB" d="M115 170q4.406-.118 8.813-.187l2.525-.077 2.432-.029 2.237-.048c2.515.43 3.387 1.416 4.993 3.341-2.846 2.846-5.804 2.456-9.625 2.625l-2.14.117c-1.745.094-3.49.177-5.235.258l.07 2.992.055 3.883.07 3.867C119 190 119 190 117 192c-2-2-2-2-2.227-4.063.01-.827.02-1.655.032-2.507l.02-2.715.05-2.84.027-2.863q.036-3.507.098-7.012"/><path fill="#155D9E" d="M217 208h6c.75 2.125.75 2.125 1 5-2.46 4.92-6.024 8.623-11 11-2.937-.187-2.937-.187-5-1v-6c2.892-.826 4.887-1 8-1z"/><path fill="#196EB0" d="M152 138h1v52h-1l-1-31-5 1h-1v-11l5-1 1 1z"/><path fill="#0C70B1" d="M149.813 91.188 152 92l3.75 1.063L159 94c-1.426 3.452-3.097 5.101-6.125 7.25l-2.195 1.578L149 104l-2-1v-2l-3-1 .563-1.875c.674-2.167.674-2.167-.563-4.125 3.426-3.06 3.426-3.06 5.813-2.812"/><path fill="#0D7FC2" d="M50 48c2.438.375 2.438.375 5 1l1 2c-1.613 3.354-3.743 6.431-5.75 9.563l-1.672 2.693-3.12 4.918C44 70 44 70 41 71c-1.344-6.23-1.344-6.23.313-9.937L43 59h2l1 2h2v-2.812c0-6.563 0-6.563 2-10.188"/><path fill="#E4F0F6" d="M79.281 31.21C81 32 81 32 82 34c2.017 1.134 2.017 1.134 4 2l-3.5.75C77.969 37.87 74.085 39.785 70 42l-2 1-1-2-5 1c3.219-5.212 10.81-11.387 17.281-10.79"/><path fill="#F6FAFA" d="M88 160h6c-.41 6.762-1.57 12.672-4 19h-2l-1 2a248 248 0 0 1-.625-4.312l-.352-2.426C86 172 86 172 88 169c.241-2.286.241-2.286.125-4.687l-.055-2.45z"/><path fill="#F1F5F8" d="M224 211h1v14h-14c2.505-2.004 5.014-4.01 7.625-5.875 2.731-2.444 3.933-4.785 5.375-8.125"/><path fill="#DFEEF7" d="M49 150c3.224 5.527 4.317 11.665 4 18h-4l-2 2-3-14 2-1 1 4c1.497-1.497 1.332-2.988 1.563-5.062z"/><path fill="#E2F2F6" d="M0 210c2 3 2 3 3.25 5.375 2.81 4.214 6.543 6.82 10.75 9.625H0z"/><path fill="#E7F2F7" d="M210 0h15v14l-2-3-2.125-2.562C219 6 219 6 219 4l-9-3z"/><path fill="#EFF7FA" d="M0 0h15c-2.125 1.063-4.26 2.113-6.437 3.063C4.764 5.934 3.076 9.785 1 14H0z"/><path fill="#0C7CBF" d="M24 105c4.82-.235 8.463.548 13 2l-1 3 3 2H24z"/><path fill="#1772B3" d="M92 170c2.96 2.68 2.96 2.68 3.313 5.563C95 178 95 178 93 180c-.205 2.11-.205 2.11-.062 4.438.113 2.999.031 4.655-.938 7.562h-3c-1.343-5.355-.506-9.207.938-14.375l.591-2.23c.48-1.802.974-3.599 1.471-5.395"/><path fill="#0A70B3" d="M54 153c3.5 5.249 5.522 11.701 4.523 18.012-.73 2.395-1.531 4.69-2.523 6.988h-1c-1.997-6.99-2.79-12.838-1-20a93 93 0 0 0-1-4z"/><path fill="#0A80C1" d="M31 86c0 4.048-1.638 5.702-3.937 9-3.003 4.263-3.003 4.263-5.063 9l-5-1-1-5 2-1v3h2l-1-4 5 1 .125-3.812c.254-2.208.254-2.208.875-4.188 3.063-2 3.063-2 6-3"/><path fill="#1C76B7" d="M174 82c2 3 2 3 2 5h-2l.125 2.25c-.132 2.906-.44 4.392-2.125 6.75-1.875.688-1.875.688-4 1q-2.003.487-4 1c3-5.631 6.188-10.88 10-16"/><path fill="#1877BD" d="M115 144h17v1h-15v2l3-1c1.895-.069 3.792-.085 5.688-.062l3.011.027L131 146v2c-2.353 1.176-3.82 1.134-6.437 1.125l-2.372.008C120 149 120 149 117 148v12h-1z"/><path fill="#1B80BD" d="M89 65h2c1.656 2.266 1.656 2.266 3.5 5.25l1.844 2.953c1.323 2.235 2.54 4.454 3.656 6.797h-4v-3l-1.937-.687C92 75 92 75 91.25 72.375L91 70h-2v2h-3v2l-2-1q1.176-2.007 2.375-4c.44-.743.882-1.485 1.336-2.25z"/><path fill="#0D7BBF" d="M72 91c1.532 3.063.523 5.686 0 9v3l-3.375.813c-3.843.845-3.843.845-5.625 4.187-.437-3.062-.437-3.062 0-7 1.597-2.058 3.32-3.702 5.273-5.422C70.227 93.92 70.227 93.92 72 91"/><path fill="#DEEEF6" d="M156 93h4v2l5 1a575 575 0 0 1-2.812 3.875l-1.583 2.18C159 104 159 104 156 106v-2l-2-1h3v-3l-4 3-2-1 1.496-1.242 1.941-1.633 1.934-1.617c1.737-1.43 1.737-1.43 2.629-3.508z"/><path fill="#1474B3" d="M164 80h2c.75 1.688.75 1.688 1 4-1.5 2.813-1.5 2.813-4 5-5.697.11-10.147-2.29-15-5l2-1 2 1c1.54.07 3.083.085 4.625.063l2.477-.028L161 84v2z"/><path fill="#E6F2F8" d="M194 42h2v2h3c-1.372 2.954-2.989 5.44-5 8v-3l-2.25 2.375c-2.344 2.238-3.893 3.319-6.75 4.625q1.403-2.377 2.813-4.75l1.582-2.672c1.439-2.311 2.838-4.506 4.605-6.578"/><path fill="#D4E9F4" d="M64 168c1.35 2.699.669 3.721-.215 6.57l-.83 2.715-.892 2.84-.881 2.863Q60.1 186.498 59 190h-7v-1h6l-.562-2.25c-.454-2.85-.31-4.055.562-6.75l.813-3.437c1.21-3.633 2.633-5.754 5.187-8.563m-8 8 2 4-3 1z"/><path fill="#0E6CAC" d="m151 149-1 11h-5v-11c4-1 4-1 6 0"/><path fill="#FCFCFB" d="M46 144c3.056 4.585 3.674 8.61 3 14-1.5 2-1.5 2-3 3l-.437-2.375c-.441-2.59-.441-2.59-1.563-4.625-.432-2.658-.698-5.323-1-8h3z"/><path fill="#C8DBEE" d="M138 141c3.278 2.415 5.543 4.17 7 8 .195 2.797.195 2.797.125 5.75l-.055 2.984L145 160l-2 1v-13l-4.937-.875c-2.778-.492-2.778-.492-5.063-1.125l-1-2 1.875-.375c2.316-.497 2.316-.497 4.125-2.625"/><path fill="#117DC0" d="M115 33h2v2l3 1v6h2c3 3.462 3 3.462 3 6l-3 1a400 400 0 0 1-2.937-4.187l-1.653-2.356C115.62 39.336 115 36.581 115 33"/><path fill="#0D75B5" d="M122 61h2c1.29 1.75 1.29 1.75 2.625 4l1.352 2.25L129 69l-3 1-2-1v3l-3-1 .625-1.75c.462-2.77-.196-3.896-1.625-6.25z"/><path fill="#F1F8F7" d="M118 43c3.123 2.518 3.945 3.726 4.75 7.75L123 54l-5-1-2-8h2z"/><path fill="#FCFBF8" d="M147 107v3c-2.75.917-4.36 1.109-7.187 1.063L136 111v-2l-2-2q2.123-.294 4.25-.562l2.39-.317c2.365-.121 4.111.183 6.36.879"/><path fill="#DAEDF8" d="M76 48c3.375.313 3.375.313 7 1l2 3h-4l-2 2-3-1a140 140 0 0 0-6.187-.062l-3.293.027L64 53c2.944-1.963 3.802-2.255 7.125-2.5L75 50z"/><path fill="#3887BF" d="M176 39q3.906-.04 7.813-.062l2.236-.026c3.25-.015 5.845.053 8.951 1.088-1.312 3.937-2.92 6.227-6 9-.25-5.625-.25-5.625 2-9h-15z"/><path fill="#047DBE" d="M43 59h2c.054 1.437.093 2.875.125 4.313l.07 2.425C45 68 45 68 43 71h-2c-1.344-6.23-1.344-6.23.313-9.937z"/><path fill="#D6E6F2" d="M68 154c1.124 3.304.896 5.05-.437 8.25l-.872 2.14L66 166h-1v-6h-4c1.098-2.993 1.677-3.846 4.625-5.25z"/><path fill="#137FBF" d="m56 104 2 1-2 6H45c3-2 3-2 7-2l-1-3c2.375-1.062 2.375-1.062 5-2"/><path fill="#D7EAF3" d="M27 94c1 2 1 2 1 5q.47 3.005 1 6c-4.75-.875-4.75-.875-7-2 1.25-3.46 2.675-6.147 5-9"/><path fill="#1480C2" d="M78 82c1.001 3.004 1.514 5.877 2 9l-4 3c-2-1-2-1-2.777-2.828-.292-2.842.471-3.71 2.215-5.922l1.433-1.86z"/><path fill="#DAEBF5" d="M96 64c2.724 2.353 3.814 4.625 5 8l-2 1-2-1 1 4c-2.481-2.158-3.707-3.677-4-7 .938-2.75.938-2.75 2-5"/><path fill="#2077B1" d="m150 91 9 3c-2 4-2 4-5 6h-3v-2l3-1-5-2z"/><path fill="#117BBC" d="M97 80c3.175.34 4.023 1.025 6.25 3.438C105 86 105 86 105 88h-3v-2l-4 1c-1.062-2.375-1.062-2.375-2-5z"/><path fill="#1781BE" d="M72 28h2v2l3-1a65 65 0 0 1 4.188-.062L85 29c-2.623 1.749-4.495 2.615-7.437 3.563l-2.31.753A108 108 0 0 1 69 35v-3l3-2z"/><path fill="#2280BE" d="m194 32 9 1 1 3c-1.5 1.188-1.5 1.188-4 2-2.788-.729-5.377-1.816-8-3z"/><path fill="#0E73B8" d="m87 166-2 10h-2l-2-10c4-1 4-1 6 0"/><path fill="#DAEBF5" d="M77 158h2c2.429 6.286 2.429 6.286 1 10v-3l-4-1-1 4-1-6 3-1z"/><path fill="#E1EDF7" d="m137 77 3 1v2l3 1 1-2 2 3h-3l1 5a367 367 0 0 1-3.437-2.812l-1.934-1.583C137 81 137 81 136 78z"/><path fill="#C8DBE7" d="M87 163c2 3 2 3 1.688 5.063C88 170 88 170 87 172c-.04 2.333-.043 4.667 0 7l-4 2v-5h2l.438-3.687c.39-3.14.886-6.22 1.562-9.313"/><path fill="#0F7BBE" d="m129 56 1 2h2v-2l4 1h-2l-1 4h2l-1 5c-2.4-2.88-4.473-5.564-6-9z"/><path fill="#FCFBF6" d="m179 68 1 4h-2v4l-3 1c-1.209 2-1.209 2-2 4l-2-2q1.433-2.19 2.875-4.375l1.617-2.46C177 70 177 70 179 68"/><path fill="#F9FBFC" d="m4 221 10 3v1H0l1-3 2 1z"/><path fill="#2080BF" d="M63 149c1.184 3.552.695 4.698-.437 8.188l-.872 2.73L61 162c-2.143-2.143-2.514-3.14-3.25-6l-.578-2.125L57 152l2-2 2 5z"/><path fill="#1B88C6" d="m50 54 3 2-7 11-2-1v-2h2v-3h2v-6z"/><path fill="#E2ECF2" d="M224 211h1v10h-7q1.463-2.504 2.938-5l1.652-2.812z"/><path fill="#1B7CBA" d="M138 65c2.688.313 2.688.313 5 1l-3 7h-2c-1.625-2.5-1.625-2.5-3-5 1.188-1.562 1.188-1.562 3-3"/><path fill="#3D97CC" d="m70 41 5 2-4 1v2h5v1H65z"/><path fill="#2989C3" d="M89 65h2l2 5h-4v2h-3v2l-2-1q1.176-2.007 2.375-4c.44-.743.882-1.485 1.336-2.25z"/><path fill="#F4F8F8" d="M150 55h4l-2 7-1-2h-2v2l-2-1c1.875-4.875 1.875-4.875 3-6"/><path fill="#0F82C4" d="M56 40h6c-.564 3.27-1.5 4.826-4 7l-2-1z"/><path fill="#0E6CAD" d="M94 178c1.031 3.27.964 5.86.563 9.25l-.31 2.703L94 192h-2a532 532 0 0 1-.125-5.875l-.07-3.305C92 180 92 180 94 178"/><path fill="#1377BA" d="M89 138h4l-1 8-3 1z"/><path fill="#D1E4F1" d="M68 87c1 2 1 2 1 4.375-1.125 2.953-1.76 3.41-4.375 5C61 98 61 98 58 97c3.75-3 3.75-3 6-3l.875-1.812C66 90 66 90 68 87"/><path fill="#F2F8F4" d="m47 67 3 1a101 101 0 0 1-2 6l-2 1v-2l-3 1 1-4h2z"/><path fill="#2B86C1" d="m160 50 1 2 2 1-4 1 1 2c-.437 2.125-.437 2.125-1 4l-3-1c.615-5.538.615-5.538 2.563-7.875z"/><path fill="#EEF5FA" d="M97 72h5l1 4-4 3z"/><path fill="#0C83C7" d="M32 72h6v3l2 1c-2.763.597-5.16 1-8 1z"/><path fill="#2E86BF" d="M53 166c3.72 1.44 3.72 1.44 4.875 3.75.17 3.07-.777 5.408-1.875 8.25h-1c-1.138-4.266-2-7.565-2-12"/><path fill="#FDFCF9" d="M60 168h2c.313 3.188.313 3.188 0 7-2.5 2.938-2.5 2.938-5 5v-4h2z"/><path fill="#F6F9F8" d="m76 164 4 1 1 5h-3l-2 2z"/><path fill="#0B73B3" d="M70 152h1v10l-3 1c-1.136-3.41-.867-4.003.438-7.187l.87-2.168z"/><path fill="#F8FBFA" d="m32 101 8 2-1 2c-2.066.414-2.066.414-4.562.625l-2.504.227L30 106l2-1z"/><path fill="#CFE4F2" d="m144 64 2 3 3 1-2 3c-3.625.688-3.625.688-7 1 1.125-2.972 2.223-5.334 4-8"/><path fill="#D4E8F6" d="m56 50 1 4-2 1-.375 1.813C53.799 59.702 52.196 61.016 50 63l-2-1z"/><path fill="#D4E8F4" d="M122 49c2.275 2.167 4.158 4.456 6 7l-1 2-4-3-1 3-3-4h4z"/><path fill="#1C7EBA" d="m168 43 2 1c-.75 2.438-.75 2.438-2 5-2.93 1.323-3.878 1.04-7 0z"/><path fill="#DFEFF9" d="m107 33 3 1v2l2.438.875C115 38 115 38 116 40h-9l-1-2 3-3h-2z"/><path fill="#1582BE" d="M104 27v3c-4.018.841-7.018 1.054-11 0 4.134-2.756 6.052-3.108 11-3"/><path fill="#D0E5F1" d="M93 138h7l-1 3v-2l-3 1a125 125 0 0 0-2 5l-2 1z"/><path fill="#0E65A6" d="M186 136h1v6h2l-1-6 3 1c.688 2.063.688 2.063 1 4h-2l-1 3h-3z"/><path fill="#B7D9EC" d="M42 105v1l6 1v1q-2.594.04-5.187.063l-2.918.035c-2.75-.093-5.22-.477-7.895-1.098 3.402-2.094 6.053-2.18 10-2"/><path fill="#1981BF" d="m82 56 3 1c.875 1.875.875 1.875 1 4-1.437 1.75-1.437 1.75-3 3l-3-2z"/><path fill="#D8E8F1" d="m69 35 3 1c-3.173 3.536-5.167 5.586-10 6 2.22-2.908 3.93-4.953 7-7"/><path fill="#FCFCFC" d="M216 0h9v8l-1-4h-2V1l-5 1z"/><path fill="#1B79BA" d="m16 220-1 3c-1.875.875-1.875.875-4 1-1.75-1.437-1.75-1.437-3-3 4.625-2.125 4.625-2.125 8-1"/><path fill="#195FA3" d="m219 209 5 1c-.551 4.08-.913 4.913-4 8z"/><path fill="#DDEEF3" d="m103 75 4 4-1 2-3-1-2 2c-.687-1.812-.687-1.812-1-4 1.438-1.75 1.438-1.75 3-3"/><path fill="#FBFBF9" d="m127 61 5 3-1 5-3-1c-1.187-3.062-1.187-3.062-2-6z"/><path fill="#F5F9F9" d="M103 79c1.938.75 1.938.75 4 2 .75 2.125.75 2.125 1 4h-5a88 88 0 0 1-1-5z"/><path fill="#1282C3" d="M33 78c2.063.438 2.063.438 4 1l-4 7h-1q-.062-3.5 0-7z"/><path fill="#DAECF6" d="M85 58h2v2h2l1 3-7 3 1-3.437c1.045-3.107 1.045-3.107 1-4.563"/><path fill="#127BB8" d="m161 36 5 2-5 5-2-1z"/><path fill="#FAFCFA" d="M81 31c3.5.313 3.5.313 7 1l1 2-8 1-1-3z"/><path fill="#1E7AB8" d="M98 147h3l1 5h-3l-1 3c-1.125-5.75-1.125-5.75 0-8"/><path fill="#FBFBF8" d="m48 164 1 4h4l-1 4h-4z"/><path fill="#FDFAF5" d="M75 152h1l1 9-3 1c-.125-7.75-.125-7.75 1-10"/><path fill="#F5F8FB" d="m38 79 3 2-2 6-3-1v-3h2z"/><path fill="#2086C0" d="m85 48 4 1 1 6-6-4z"/><path fill="#1F7CB7" d="M45 162c1.804 2.76 2.013 3.89 1.625 7.25L46 172l-1-4h-2v-3h2z"/><path fill="#2C8DC5" d="M72 91c1.333 2.667.671 4.167 0 7l-6 1z"/><path fill="#F7FBFD" d="M156 92c6.625-.125 6.625-.125 10 1l-1 3-5-1v-2z"/><path fill="#358FC4" d="m42 81 1 4c-1.937 2.75-1.937 2.75-4 5l-2-1z"/><path fill="#CFE5F6" d="m132 64 2 3c-.875 3.188-.875 3.188-2 6l-4-4 1.438-1.375C131.09 66.067 131.09 66.067 132 64"/><path fill="#076EB0" d="m161 50 5 1 1 4-3-1-1 2-2-1z"/><path fill="#2584C3" d="M158.188 43.375 160 44l-6 5-1-4c3-2 3-2 5.188-1.625"/><path fill="#F2F7F5" d="m109 39 7 1v2l-5 1z"/><path fill="#288CC8" d="m108 32 6 1 1 5-5-2v-2h-2z"/><path fill="#2896D2" d="m11 1 3 1v2L5 6c3.75-3.875 3.75-3.875 6-5"/><path fill="#2078B8" d="M90 178c2.398 2.398 2.343 3.333 2.625 6.625l.227 2.477L93 189c-2-3-2-3-2-5h-2z"/><path fill="#FBFBFA" d="M66 149h2v6l-5 2c.628-2.929 1.586-5.361 3-8"/><path fill="#4084B9" d="M134 146c2 1.563 2 1.563 4 4 .25 3.75.25 3.75 0 7h-1v-6l-4-2z"/><path fill="#146DAC" d="m142 136 2 1c.188 2.375.188 2.375 0 5l-3 2-1-2h2l-3-5z"/><path fill="#E7F0F7" d="M145 105c2.915 1.074 4.778 1.778 7 4-2.354 1.43-3.48 2.087-6.25 1.625L144 110h3z"/><path fill="#267CB3" d="m148 83 10 2v3q-2.222-.676-4.437-1.375l-2.497-.773C149 85 149 85 148 83"/><path fill="#1382BF" d="M92 54c2.5 2.174 3.436 3.73 4 7l-2 1-4-7z"/><path fill="#D7EAF6" d="m190 48 3 1-6 7-2-1z"/><path fill="#D3E3F1" d="m123 100 5 4-3 1-1-1c-2-.04-4-.043-6 0l-1-2h6z"/><path fill="#1979C0" d="M152 95h5v3c-3 2-3 2-6 2v-2l3-1z"/><path fill="#0F81C1" d="M41 66h4l-2 5h-2c-.562-1.937-.562-1.937-1-4z"/><path fill="#1B7DC0" d="m214 2 5 2-4 1v2l-5-1z"/><path fill="#0D88C9" d="M16 0v6H9l2-2h3l-1-3c2-1 2-1 3-1"/><path fill="#FEFDF9" d="M79 173h3v5l-3 1z"/><path fill="#1679BA" d="m74 165 2 3-1 3-4-2z"/><path fill="#1B79BB" d="M87 166v2h-4l-1 4-1-6c3.75-1.125 3.75-1.125 6 0"/><path fill="#EAF6FB" d="M179 162h3v5h-5l2-1z"/><path fill="#FBFAF7" d="m28 94 2 1 1 3-1 2-4-2z"/><path fill="#DDEAF3" d="m114 92 4 2c-2.647 1.46-3.894 2-7 2l-1-2h3z"/><path fill="#DBECF7" d="M35 87h3c-1.186 3.375-2.276 5.647-5 8 .523-2.763 1.109-5.326 2-8"/><path fill="#D7EAF0" d="m107 81 3 2c-.812 1.938-.812 1.938-2 4l-3 1-1-3 3-2z"/><path fill="#2485BD" d="M125 64c2.248 2.052 3.002 3.007 4 6l-5-1z"/><path fill="#FAFCFA" d="M145 64h4v3h-2l-1 2h-2z"/></svg>