<?xml version="1.0" encoding="UTF-8"?>
<svg version="1.1" xmlns="http://www.w3.org/2000/svg" width="225" height="225">
<path d="M0 0 C74.25 0 148.5 0 225 0 C225 74.25 225 148.5 225 225 C150.75 225 76.5 225 0 225 C0 150.75 0 76.5 0 0 Z " fill="#229ACE" transform="translate(0,0)"/>
<path d="M0 0 C74.25 0 148.5 0 225 0 C225 74.25 225 148.5 225 225 C150.75 225 76.5 225 0 225 C0 150.75 0 76.5 0 0 Z M34.6315918 43.64550781 C14.80854486 66.66672436 7.50709614 93.95464086 9 124 C9.47906944 128.80891403 10.61566632 133.37443527 12 138 C12.35191406 139.216875 12.70382813 140.43375 13.06640625 141.6875 C21.69485785 169.48079625 39.60275767 190.9937405 65 205 C90.98266756 217.90214842 119.06892757 219.26493258 146.625 210.8125 C173.92279492 201.09633571 195.03713279 181.47092016 207.50390625 155.328125 C218.68758026 130.44956036 219.58403603 101.54435694 210.3125 75.875 C199.64231447 48.23272926 178.59836544 28.29235194 152 16 C111.25949699 -1.19062479 63.80071107 11.180585 34.6315918 43.64550781 Z " fill="#FEFEFE" transform="translate(0,0)"/>
<path d="M0 0 C0.63711914 0.30067383 1.27423828 0.60134766 1.93066406 0.91113281 C10.89893895 5.23151736 18.62878676 10.23388635 26 17 C26.92554688 17.84433594 27.85109375 18.68867187 28.8046875 19.55859375 C47.3854896 37.29013481 59.35934402 61.79267405 60.23828125 87.58203125 C60.76999861 117.32005304 53.33407204 143.31488409 32.65234375 165.3046875 C32.10707031 165.86414063 31.56179687 166.42359375 31 167 C27.11759569 165.41606688 24.49150686 162.7742507 21.58886719 159.84765625 C20.79795181 159.06199783 20.79795181 159.06199783 19.99105835 158.26046753 C18.25460807 156.5327998 16.52555188 154.7979431 14.796875 153.0625 C13.59219117 151.85916341 12.38721058 150.65612385 11.1819458 149.45336914 C8.66034841 146.93471796 6.14239861 144.41249015 3.62695312 141.88769531 C0.39648316 138.64580665 -2.84291452 135.41301113 -6.08507156 132.18281555 C-8.5730109 129.70208746 -11.05618646 127.21663514 -13.53792572 124.72970581 C-14.73101583 123.53527843 -15.92560193 122.34234349 -17.12168121 121.15090942 C-18.78814615 119.48950026 -20.44810393 117.82185609 -22.10644531 116.15234375 C-22.60510101 115.65773651 -23.10375671 115.16312927 -23.61752319 114.65353394 C-27 111.22853222 -27 111.22853222 -27 109 C-26.01 109 -25.02 109 -24 109 C-24 100.42 -24 91.84 -24 83 C-21.52752418 85.47247582 -19.96653224 87.43217316 -18.15234375 90.34375 C-17.62962891 91.17777344 -17.10691406 92.01179688 -16.56835938 92.87109375 C-16.03017578 93.73863281 -15.49199219 94.60617188 -14.9375 95.5 C-13.86351084 97.21889347 -12.78930125 98.93764924 -11.71484375 100.65625 C-11.24167725 101.41744141 -10.76851074 102.17863281 -10.28100586 102.96289062 C-9.21431198 104.65919208 -8.11151656 106.33272516 -7 108 C-5.35 108.33 -3.7 108.66 -2 109 C-2 98.77 -2 88.54 -2 78 C-3.32 78 -4.64 78 -6 78 C-6 86.25 -6 94.5 -6 103 C-9.68690909 98.39136364 -12.98075701 93.71245391 -16.25 88.8125 C-16.80429688 87.99330078 -17.35859375 87.17410156 -17.9296875 86.33007812 C-18.45304687 85.54697266 -18.97640625 84.76386719 -19.515625 83.95703125 C-19.99290039 83.24522705 -20.47017578 82.53342285 -20.96191406 81.80004883 C-22 80 -22 80 -22 78 C-23.98 78 -25.96 78 -28 78 C-28 88.23 -28 98.46 -28 109 C-30.31 107.02 -32.62 105.04 -35 103 C-35.77988281 102.34515625 -36.55976562 101.6903125 -37.36328125 101.015625 C-42.16267789 96.66827574 -43.6806918 93.64892023 -44.5234375 87.26953125 C-45.27275533 83.70105863 -47.14565407 82.12416441 -50 80 C-52.77082451 78.61458774 -55.27243124 77.94008422 -58.30458069 77.27322388 C-62.42561594 75.85335781 -64.79922551 73.87902661 -67.75170898 70.81591797 C-68.27942398 70.28893311 -68.80713898 69.76194824 -69.35084534 69.21899414 C-71.07805983 67.48831887 -72.78692065 65.74066648 -74.49609375 63.9921875 C-75.69568507 62.78326274 -76.89639107 61.57544313 -78.09815979 60.36868286 C-81.24764776 57.20016725 -84.38182641 54.01692331 -87.51300049 50.83032227 C-90.7150105 47.57702891 -93.93134432 44.33796485 -97.14648438 41.09765625 C-103.44505036 34.74557731 -109.72752679 28.37783871 -116 22 C-114.12602351 17.83609816 -111.36506814 15.50420568 -107.8125 12.75 C-107.19246094 12.26837402 -106.57242188 11.78674805 -105.93359375 11.29052734 C-75.78254948 -11.49682062 -34.18511097 -16.16839107 0 0 Z " fill="#1E87B5" transform="translate(156,18)"/>
<path d="M0 0 C17.89619377 0 17.89619377 0 23.3359375 5.2578125 C26.4754845 10.4314322 25.89072586 16.17344739 25 22 C22.4201153 27.26262195 19.41117867 28.83552853 14 31 C9.38 31 4.76 31 0 31 C0 20.77 0 10.54 0 0 Z " fill="#259BCE" transform="translate(54,96)"/>
<path d="M0 0 C2.84186214 0.84487793 3.79789836 1.7690267 5.75 4 C8.05583816 9.53401159 7.77438333 14.93497778 5.6875 20.5 C4 23 4 23 1 25 C-3.59271203 25.73965025 -7.02462089 25.60961194 -11 23.125 C-14.14902894 19.77915675 -14.18315426 17.70515817 -14.25 13.1875 C-14.27578125 12.14980469 -14.3015625 11.11210938 -14.328125 10.04296875 C-13.95408344 6.57417855 -13.07568054 4.77889007 -11 2 C-7.27624573 -0.48250285 -4.30855244 -0.40992301 0 0 Z " fill="#219ACD" transform="translate(102,99)"/>
<path d="M0 0 C2.3815918 0.03710938 2.3815918 0.03710938 5 1 C6.57739258 3.75976562 6.57739258 3.75976562 7.89453125 7.40625 C8.13161301 8.04614868 8.36869476 8.68604736 8.61296082 9.34533691 C9.3653584 11.39046443 10.08884145 13.44455031 10.8125 15.5 C11.31783693 16.88478176 11.82497776 18.26890666 12.33398438 19.65234375 C16 29.68569796 16 29.68569796 16 31 C14.35 31 12.7 31 11 31 C10.34 28.36 9.68 25.72 9 23 C4.38 23 -0.24 23 -5 23 C-5.66 25.64 -6.32 28.28 -7 31 C-8.65 31 -10.3 31 -12 31 C-1.83639706 1.83639706 -1.83639706 1.83639706 0 0 Z " fill="#EDF6FA" transform="translate(34,96)"/>
<path d="M0 0 C1.65 0 3.3 0 5 0 C6.94458008 2.11132812 6.94458008 2.11132812 8.76953125 5.03125 C9.43017578 6.06894531 10.09082031 7.10664062 10.77148438 8.17578125 C11.44501953 9.27277344 12.11855469 10.36976562 12.8125 11.5 C13.50537109 12.59699219 14.19824219 13.69398437 14.91210938 14.82421875 C16.62394193 17.53953935 18.3140431 20.26853775 20 23 C20.33 15.41 20.66 7.82 21 0 C22.32 0 23.64 0 25 0 C25 10.23 25 20.46 25 31 C23.35 31 21.7 31 20 31 C18.0808003 28.71885931 16.59684394 26.64588104 15.0625 24.125 C14.65837891 23.49335937 14.25425781 22.86171875 13.83789062 22.2109375 C10.44986542 16.87546474 7.25095965 11.41826609 4 6 C3.67 14.25 3.34 22.5 3 31 C2.01 31 1.02 31 0 31 C0 20.77 0 10.54 0 0 Z " fill="#F6FAFB" transform="translate(129,96)"/>
<path d="M0 0 C3.81151433 1.73858549 5.42797583 3.21823363 7.875 6.5625 C9.64902719 11.98313863 10.1660558 17.69318534 8.23828125 23.16015625 C6.04075954 27.25119469 3.52927748 30.04061889 -0.8125 31.6875 C-5.65398119 32.37914017 -8.88238207 32.62328692 -13.25 30.1875 C-18.72164948 25.83505155 -18.72164948 25.83505155 -20 22 C-21.0062561 9.64449475 -21.0062561 9.64449475 -18.25 5.375 C-12.58995487 -0.59949208 -8.08301612 -0.96303673 0 0 Z M-15 8 C-17.08540153 12.17080307 -16.45427114 17.45728864 -16 22 C-14.19196596 25.07365786 -13.13960536 26.43019732 -10 28 C-6.94059163 28.42074378 -4.0540292 28.47999423 -1 28 C2.28175318 25.47031526 3.69243777 23.92268669 5 20 C5.40603893 15.39301988 5.54360209 11.30464502 3.75 7 C0.66234712 3.47125385 -1.23264354 3.08526183 -5.9375 2.5625 C-10.40976082 2.65428147 -12.24768491 4.49705352 -15 8 Z " fill="#F0F7FA" transform="translate(104,96)"/>
<path d="M0 0 C17.89619377 0 17.89619377 0 23.3359375 5.2578125 C26.4754845 10.4314322 25.89072586 16.17344739 25 22 C22.4201153 27.26262195 19.41117867 28.83552853 14 31 C9.38 31 4.76 31 0 31 C0 20.77 0 10.54 0 0 Z M4 3 C4 11.25 4 19.5 4 28 C11.80837822 28.20041596 11.80837822 28.20041596 18 25 C21.80100326 20.95347739 21.60675991 17.19738969 21.49609375 11.859375 C20.96154266 8.7783404 20.48979971 7.77834817 18.125 5.8125 C12.09031215 2.31238105 12.83077686 3 4 3 Z " fill="#F0F7FB" transform="translate(54,96)"/>
<path d="M0 0 C5.28 0 10.56 0 16 0 C16 0.99 16 1.98 16 3 C12.04 3 8.08 3 4 3 C4 6.63 4 10.26 4 14 C7.63 14 11.26 14 15 14 C15 14.99 15 15.98 15 17 C11.37 17 7.74 17 4 17 C4 20.63 4 24.26 4 28 C8.29 28 12.58 28 17 28 C17 28.99 17 29.98 17 31 C11.39 31 5.78 31 0 31 C0 20.77 0 10.54 0 0 Z " fill="#F8FBFC" transform="translate(162,96)"/>
<path d="M0 0 C7.26 0 14.52 0 22 0 C22 0.99 22 1.98 22 3 C19.03 3 16.06 3 13 3 C13 12.24 13 21.48 13 31 C11.68 31 10.36 31 9 31 C9 21.76 9 12.52 9 3 C6.03 3 3.06 3 0 3 C0 2.01 0 1.02 0 0 Z " fill="#F4F8FB" transform="translate(181,96)"/>
<path d="M0 0 C0.66 0 1.32 0 2 0 C2.67057887 1.7902061 3.3363469 3.58221489 4 5.375 C4.556875 6.87160156 4.556875 6.87160156 5.125 8.3984375 C6 11 6 11 6 13 C2.7 13 -0.6 13 -4 13 C-3.52343588 11.20763933 -3.04366502 9.41613103 -2.5625 7.625 C-2.29566406 6.62726563 -2.02882812 5.62953125 -1.75390625 4.6015625 C-1 2 -1 2 0 0 Z " fill="#239CCE" transform="translate(35,102)"/>
<path d="M0 0 C1.32 0 2.64 0 4 0 C3.67 1.65 3.34 3.3 3 5 C1.68 4.34 0.36 3.68 -1 3 C-0.67 2.01 -0.34 1.02 0 0 Z " fill="#EAF4F9" transform="translate(118,123)"/>
<path d="M0 0 C2.375 0.3125 2.375 0.3125 5 1 C5.66 1.99 6.32 2.98 7 4 C6.67 4.99 6.34 5.98 6 7 C4.02 4.69 2.04 2.38 0 0 Z " fill="#1C87B5" transform="translate(101,100)"/>
</svg>
